<?xml version="1.0" encoding="UTF-8" standalone="no"?>
<!-- Created with Inkscape (http://www.inkscape.org/) -->

<svg
   width="140.03191mm"
   height="143.21596mm"
   viewBox="0 0 140.03191 143.21596"
   version="1.1"
   id="svg1"
   xmlns="http://www.w3.org/2000/svg"
   xmlns:svg="http://www.w3.org/2000/svg">
  <defs
     id="defs1" />
  <g
     id="layer1">
    <path
       id="rect1-5"
       style="stroke-width:0.207556;fill:#0055d4"
       d="m 21.366253,88.285894 v -33.35584 c 0,-0.45102 0.363089,-0.81411 0.814102,-0.81411 h 95.671185 c 0.45102,0 0.81411,0.36309 0.81411,0.81411 v 33.35584 c 0,0.45101 -0.36309,0.8141 -0.81411,0.8141 H 22.180355 c -0.451013,0 -0.814102,-0.36309 -0.814102,-0.8141 z M 53.338032,22.958278 h 33.355841 c 0.45102,0 0.81411,0.363086 0.81411,0.814106 v 95.671186 c 0,0.45102 -0.36309,0.81411 -0.81411,0.81411 H 53.338032 c -0.451013,0 -0.814103,-0.36309 -0.814103,-0.81411 V 23.772384 c 0,-0.45102 0.36309,-0.814106 0.814103,-0.814106 z" />
    <path
       id="rect3"
       style="stroke-width:0.264583;fill:#ff7f2a"
       d="M 4.2382556,129.91473 H 31.47463 c 0.732896,0 1.322917,0.59002 1.322917,1.32291 v 9.74435 c 0,0.7329 -0.590021,1.32292 -1.322917,1.32292 H 4.2382556 c -0.732896,0 -1.322917,-0.59002 -1.322917,-1.32292 v -9.74435 c 0,-0.73289 0.590021,-1.32291 1.322917,-1.32291 z M 2.7805836,0.91103787 h 7.193429 c 0.7328964,0 1.3229174,0.59002003 1.3229174,1.32291703 V 140.98201 c 0,0.73289 -0.590021,1.32291 -1.3229174,1.32291 h -7.193429 c -0.732896,0 -1.322917,-0.59002 -1.322917,-1.32291 V 2.2339549 c 0,-0.732896 0.590021,-1.32291703 1.322917,-1.32291703 z" />
    <path
       id="rect3-1"
       style="stroke-width:0.264583;fill:#ff7f2a"
       d="m 135.61968,129.91472 h -27.23637 c -0.7329,0 -1.32292,0.59002 -1.32292,1.32291 v 9.74435 c 0,0.7329 0.59002,1.32292 1.32292,1.32292 h 27.23637 c 0.7329,0 1.32292,-0.59002 1.32292,-1.32292 v -9.74435 c 0,-0.73289 -0.59002,-1.32291 -1.32292,-1.32291 z M 137.07735,0.91104337 h -7.19342 c -0.7329,0 -1.32292,0.59002003 -1.32292,1.32292003 V 140.982 c 0,0.73289 0.59002,1.32291 1.32292,1.32291 h 7.19342 c 0.7329,0 1.32292,-0.59002 1.32292,-1.32291 V 2.2339634 c 0,-0.7329 -0.59002,-1.32292003 -1.32292,-1.32292003 z" />
  </g>
</svg>
