<?xml version="1.0" encoding="UTF-8" standalone="no"?>
<!-- Created with Inkscape (http://www.inkscape.org/) -->

<svg
   width="901.10431"
   height="1348.3435"
   viewBox="0 0 901.10431 1348.3435"
   version="1.1"
   id="svg1"
   xml:space="preserve"
   xmlns="http://www.w3.org/2000/svg"
   xmlns:svg="http://www.w3.org/2000/svg"><defs
     id="defs1" /><g
     id="layer1"
     style="display:inline"
     transform="translate(0,-1.6564417)" /><path
     id="path126"
     style="display:inline;fill:none;fill-opacity:1;stroke:#cccccc;stroke-width:10;stroke-dasharray:none;stroke-opacity:1"
     d="m 418.20859,124.34356 h 21 c 0,0 8,0 8,-12 0,-12 0,-12 0,-12 m 342,233 h -17 m -305,454 h 278 m -90,288.00004 V 963.34356 c 0,0 0.5,-13 -27.5,-13 -28,0 -55.5,5 -55.5,-27 v -147 m 64,-275 v 106 m 155,-1 h -190 c 0,0 -32,7 -32,-37 0,-44 0,-55 0,-55 m 194,322 v 16 m 7,-64 h 21 m -21,98 h 23 m -138,184.50004 V 968.34356 c 0,0 -6,-19 23,-19 29,0 92.5,0 92.5,0 0,0 20.5,3.5 20.5,-39 0,-42.5 0,-304.59527 0,-304.59527 h 2.05505 V 204.34356 c 0,0 -0.0551,-133.000002 -124.05505,-133.000002 -124,0 -263,0 -263,0 m 253.5,1180.500042 h 15 m -16.5,-73 h 17 m -147.5,140 h 78 45 c 0,0 23.5,3 23.5,-23.5 0,-26.5 2,-203 2,-203 m -149.5,159 h 14 m -13,-72 h 18 m -208.5,-268.00004 h -27 c 0,0 -12,-2 -12,17 0,19 0,54 0,54 l 26.5,65.00004 h 171 c 0,0 9,-3.5 9,-12.5 0,-9 -30,-10.5 -30,-0.5 0,10 -1,13 -1,13 h -149 c 0,0 -13,-4.5 -13,25 m -69,-49.5 v 58 m -41,-149.50004 v 19.5 m -121.500001,-22.5 H 222.20859 m -231.500001,-182 h 66.5 m 13.39192,-562.73802 h 45.254831 m 13.35325,489.23802 h 185.5 m -138.5,-131.5 v 20.5 m -18.5,-18 v 16.5 m -48,5.5 h 14 m 4,55.5 h 22.5 m -73.500001,36.5 h 50.000001 m 0.5,-117.5 v 185.5 c 0,0 5.5,20.5 -18,20.5 -23.500001,0 -35.500001,0 -35.500001,0 m 0.5,-205 H 572.20859 m -411.5,-144.5 v 18.5 m -82.000001,0.5 H 259.20859 M 418.8506,26.274276 V 133.75451 h -87.68124 c 0,0 -70.71068,7.07107 -70.71068,70.71068 0,63.63961 0,186.67619 0,186.67619 V 541.84356 M 283.0861,73.296877 h 22.98097 M 280.61122,28.042043 v 83.438607 c 0,0 4.24264,17.67766 -10.96015,17.67766 -15.2028,0 -27.93072,0 -27.93072,0" /><path
     id="rect21"
     style="display:inline;fill:#cccccc"
     d="m 368.20859,1093.8436 h 7 v 47 h -7 z m 63,-1008.500042 h 32 v 30.000002 h -32 z m 332,204.000002 h 16 v 55 h -16 z m -206,195 h 27 v 44 h -27 z" /><path
     id="rect7"
     style="display:inline;fill:#cccccc"
     d="m 498.4849,1092.3202 h 32.79587 v 255.3393 H 498.4849 Z M 51.055489,7.713808 h 30.45331 V 1143.8565 H 51.055489 Z M 810.04569,2.1994543 H 859.2395 V 1344.4877 H 810.04569 Z M 3.022249,1068.8946 H 901.39493 v 29.2821 H 3.022249 Z M 2.898775,1.6564417 H 901.5184 V 31.472392 H 2.898775 Z" /><path
     id="rect46"
     style="fill:#b3b3b3;stroke:#cccccc"
     d="m 765.6865,978.39355 h 25.45584 v 31.11275 H 765.6865 Z m -28.2843,10e-6 v 44.54774 h -30.40559 v 16.2635 h 31.1127 v 23.3345 h 53.03301 v -47.3761 H 756.49409 V 976.97935 Z M 230.40665,764.84728 h 30.40559 v 28.99138 h -30.40559 z m 122.32947,142.12849 v 21.21321 h -8.48529 v 26.87006 h 33.94113 v -9.8995 h 73.5391 V 904.85445 Z M 269.29751,803.03108 v 82.73149 h 101.82338 v -39.59798 h 16.97056 V 802.32397 Z M 630.88877,692.72241 h 31.8198 v 22.62741 h -31.8198 z m 9.89953,-36.76954 h 21.92031 v 31.81981 H 640.7883 Z m -9.19238,-29.69848 h 31.1127 v 25.45584 h -31.1127 z m -49.05011,66.46802 h 31.8198 v 22.62741 h -31.8198 z m 0,-36.76954 h 21.92031 v 31.81981 h -21.92031 z m 0,-29.69848 h 31.1127 v 25.45584 h -31.1127 z M 158.98886,443.82082 h 35.35534 v 10.60661 h -35.35534 z m 0.70711,12.72794 h 33.94112 v 9.8995 h -33.94112 z m 1.4142,12.72791 h 32.52691 v 10.6066 h -32.52691 z m -0.70711,14.14215 h 32.52692 v 9.19238 H 160.40306 Z M 93.227919,474.93353 H 132.1188 v 8.48528 H 93.227919 Z m 67.175141,21.21319 h 33.23402 v 16.97056 H 160.40306 Z M 93.227919,495.43963 H 132.1188 V 513.1173 H 93.227919 Z m 1.41422,-50.20459 H 132.1188 v 18.38478 H 94.642139 Z M 576.18186,1005.2637 c 0,0 13.43503,-12.728 20.50609,-10.60668 7.07107,2.12132 7.37132,-19.82967 7.37132,-19.82967 0,0 -19.39213,-1.38354 -30.70584,7.10174 -11.31371,8.48528 -10.25305,10.25305 -10.25305,10.25305 z m -28.99138,16.2634 19.09188,0.7071 5.65686,-12.7279 -15.55635,-11.31375 z m -9.19239,5.6569 v 29.6985 h 30.40559 c 0,0 53.20458,-1.3285 63.10408,-40.2193 9.89949,-38.89096 7.4679,-40.56683 7.4679,-40.56683 l -30.00101,-5.86887 c 0,0 5.39097,57.6636 -42.69229,57.6636 -48.08326,0 -28.28427,-0.7071 -28.28427,-0.7071 z m -4.94975,-79.90314 h 24.74874 v 23.33452 H 532.34124 Z M 116.56245,838.38642 h 90.50967 v 23.33452 h -90.50967 z m 0,29.69848 h 48.08326 V 888.591 H 115.85534 Z M 91.813709,839.09352 H 111.6127 v 49.66905 H 92.520819 Z M 173.8381,786.06051 h 43.13351 v 47.37616 H 91.813709 V 808.68793 H 173.8381 Z m 316.07673,122.32948 h 52.3259 v 31.1127 h -18.38477 v 29.69848 h -27.57717 v -16.26345 h 14.84924 V 940.9169 h -19.79899 z m -158.39192,-344.361 h 81.31728 v -9.19239 h 41.01219 v 28.28427 h -28.28427 v 27.57716 h 29.69849 v 14.84925 h -67.88225 v 19.09188 H 330.1087 Z m 163.34167,155.56349 h 25.45584 v 24.04163 h 23.33453 v 33.23402 H 495.57168 Z M 315.20859,928.34356 h 19 c 2.77,0 5,2.23 5,5 v 6 c 0,2.77 -2.23,5 -5,5 h -19 c -2.77,0 -5,-2.23 -5,-5 v -6 c 0,-2.77 2.23,-5 5,-5 z m 225,188.00004 h 117 c 2.77,0 5,2.23 5,5 v 32 c 0,2.77 -2.23,5 -5,5 h -117 c -2.77,0 -5,-2.23 -5,-5 v -32 c 0,-2.77 2.23,-5 5,-5 z m -346,-808.00004 h 48 c 2.77,0 5,2.23 5,5 v 29 c 0,2.77 -2.23,5 -5,5 h -48 c -2.77,0 -5,-2.23 -5,-5 v -29 c 0,-2.77 2.23,-5 5,-5 z m -95.000001,65 h 18.000001 c 2.77,0 5,2.23 5,5 v 18 c 0,2.77 -2.23,5 -5,5 H 99.208589 c -2.77,0 -5,-2.23 -5,-5 v -18 c 0,-2.77 2.23,-5 5,-5 z m -2,-31 h 19.000001 c 2.77,0 5,2.23 5,5 v 16 c 0,2.77 -2.23,5 -5,5 H 97.208589 c -2.77,0 -5,-2.23 -5,-5 v -16 c 0,-2.77 2.23,-5 5,-5 z m 1,-31 h 18.000001 c 2.77,0 5,2.23 5,5 v 16 c 0,2.77 -2.23,5 -5,5 H 98.208589 c -2.77,0 -5,-2.23 -5,-5 v -16 c 0,-2.77 2.23,-5 5,-5 z m 418.000001,186 h 20 c 2.77,0 5,2.23 5,5 v 22 c 0,2.77 -2.23,5 -5,5 h -20 c -2.77,0 -5,-2.23 -5,-5 v -22 c 0,-2.77 2.23,-5 5,-5 z m -10,73 h 52 c 2.77,0 5,2.23 5,5 v 48 c 0,2.77 -2.23,5 -5,5 h -52 c -2.77,0 -5,-2.23 -5,-5 v -48 c 0,-2.77 2.23,-5 5,-5 z m -31,415 h 51 c 2.77,0 5,2.23 5,5 v 20.00004 c 0,2.77 -2.23,5 -5,5 h -51 c -2.77,0 -5,-2.23 -5,-5 v -20.00004 c 0,-2.77 2.23,-5 5,-5 z m -147,-22 h 116 c 2.77,0 5,2.23 5,5 v 20 c 0,2.77 -2.23,5 -5,5 h -116 c -2.77,0 -5,-2.23 -5,-5 v -20 c 0,-2.77 2.23,-5 5,-5 z m 172,-133 h 47 c 2.77,0 5,2.23 5,5 v 32 c 0,2.77 -2.23,5 -5,5 h -47 c -2.77,0 -5,-2.23 -5,-5 v -32 c 0,-2.77 2.23,-5 5,-5 z m -225,-141 h 41 c 2.77,0 5,2.23 5,5 v 36 c 0,2.77 -2.23,5 -5,5 h -41 c -2.77,0 -5,-2.23 -5,-5 v -36 c 0,-2.77 2.23,-5 5,-5 z m 131,-1 h 37 c 2.77,0 5,2.23 5,5 v 96 c 0,2.77 -2.23,5 -5,5 h -37 c -2.77,0 -5,-2.23 -5,-5 v -96 c 0,-2.77 2.23,-5 5,-5 z m -257,-2 h 105 c 2.77,0 5,2.23 5,5 v 57 c 0,2.77 -2.23,5 -5,5 h -105 c -2.77,0 -5,-2.23 -5,-5 v -57 c 0,-2.77 2.23,-5 5,-5 z m -58.000001,19 h 19.000001 c 2.77,0 5,2.23 5,5 v 21 c 0,2.77 -2.23,5 -5,5 H 91.208589 c -2.77,0 -5,-2.23 -5,-5 v -21 c 0,-2.77 2.23,-5 5,-5 z m 1,-35 h 20.000001 c 2.77,0 5,2.23 5,5 v 19 c 0,2.77 -2.23,5 -5,5 H 92.208589 c -2.77,0 -5,-2.23 -5,-5 v -19 c 0,-2.77 2.23,-5 5,-5 z m 3,-114 h 14.000001 c 2.77,0 5,2.23 5,5 v 80 c 0,2.77 -2.23,5 -5,5 H 95.208589 c -2.77,0 -5,-2.23 -5,-5 v -80 c 0,-2.77 2.23,-5 5,-5 z m 125.000001,-3 h 96 c 2.77,0 5,2.23 5,5 v 71 c 0,2.77 -2.23,5 -5,5 h -96 c -2.77,0 -5,-2.23 -5,-5 v -71 c 0,-2.77 2.23,-5 5,-5 z m 374,-62 h 22 c 2.77,0 5,2.23 5,5 v 87 c 0,2.77 -2.23,5 -5,5 h -22 c -2.77,0 -5,-2.23 -5,-5 v -87 c 0,-2.77 2.23,-5 5,-5 z m 161,-204 v 61 h -21 v 240 h -86 v -257 c 0,0 2,-43.5 38,-44.5 36,-1 69,0.5 69,0.5 z m -427,405 h 61 v 101 h -117 v -52 h 57 z m 71.83499,110.42725 h 83.11685 c 2.77,0 5,2.23 5,5 v 82.53121 c 0,2.77 -2.23,5 -5,5 h -83.11685 c -2.77,0 -5,-2.23 -5,-5 v -82.53121 c 0,-2.77 2.23,-5 5,-5 z m 69.69485,-669.72992 c 0,0 50.95073,12.8841 51.53637,53.87894 0.58564,40.99484 0,286.37825 0,286.37825 l 116.88504,0.5 2,-142.92399 c 0,0 8.44204,-52.59433 34.79587,-52.59433 h 102.24403 v -96.6307 c 0,0 -9.95589,-97.216336 -98.97326,-97.216336 H 469.73843 Z m -186.81935,395.3074 h 223.7147 l -1.75692,-337.32898 c 0,0 -3.51384,-38.65228 -37.48099,-39.23792 -33.96716,-0.58564 -148.75271,0 -148.75271,0 0,0 -35.72408,5.85641 -36.30972,40.4092 -0.58564,34.5528 0.58564,336.1577 0.58564,336.1577 z" /><path
     style="display:inline;fill:#ffaaaa;fill-opacity:1"
     d="M 103.1135,36.441718 H 267.92945 V 153.63497 c 0,0 -19.8773,16.15031 -20.70552,47.20859 -0.82822,31.05828 0,92.34663 0,92.34663 H 103.94172 Z"
     id="path16" /><rect
     style="fill:#e3d7f4;fill-opacity:1"
     id="rect60"
     width="125.1579"
     height="62.225395"
     x="537.29102"
     y="1164.3625"
     rx="5" /><rect
     style="fill:#e3d7f4;fill-opacity:1"
     id="rect61"
     width="125.86501"
     height="70.710678"
     x="536.58392"
     y="1237.1946"
     rx="5" /><rect
     style="fill:#e3d7f4;fill-opacity:1"
     id="rect62"
     width="79.903069"
     height="137.17871"
     x="588.2027"
     y="801.61688"
     rx="5" /><rect
     style="fill:#e3d7f4;fill-opacity:1"
     id="rect63"
     width="107.48023"
     height="45.961941"
     x="559.91846"
     y="733.02753"
     rx="5" /><rect
     style="fill:#e3d7f4;fill-opacity:1"
     id="rect65"
     width="208.5965"
     height="25.455845"
     x="87.571075"
     y="1034.2549"
     rx="5" /><path
     id="rect65-2"
     style="fill:#e3d7f4;stroke-width:1.25444"
     d="m 745.2038,358.34356 h 30.08178 c 0.41958,0 0.75736,0.33778 0.75736,0.75736 v 262.94112 c 0,0.41958 -0.33778,0.75736 -0.75736,0.75736 H 745.2038 c -0.41957,0 -0.75736,-0.33778 -0.75736,-0.75736 V 359.10092 c 0,-0.41958 0.33779,-0.75736 0.75736,-0.75736 z M 686.29062,595.5559 h 84.75231 c 2.77,0 5,2.23 5,5 v 135.664 c 0,2.77 -2.23,5 -5,5 h -84.75231 c -2.77,0 -5,-2.23 -5,-5 v -135.664 c 0,-2.77 2.23,-5 5,-5 z" /><path
     style="fill:#e3d7f4;fill-opacity:1"
     d="m 136.50893,305.21923 v 97.21633 H 247.19501 V 356.7556 h -66.76303 v -51.53637 z"
     id="path23" /><rect
     style="fill:#e3d7f4;fill-opacity:1;stroke-width:1.12692"
     id="rect10"
     width="31.1127"
     height="48.083263"
     x="554.96869"
     y="482.71173"
     rx="5.7894735" /><rect
     style="fill:#e3d7f4;fill-opacity:1"
     id="rect11"
     width="14.849242"
     height="100.40916"
     x="628.50781"
     y="500.38937"
     rx="5" /><rect
     style="fill:#ffaaaa;fill-opacity:1"
     id="rect16"
     width="119.2638"
     height="85.720856"
     x="289.4632"
     y="36.441719"
     rx="5" /><rect
     style="fill:#ffaaaa;fill-opacity:1"
     id="rect17"
     width="61.288345"
     height="107.66871"
     x="142.45398"
     y="553.66565"
     rx="5" /><rect
     style="fill:#ffaaaa;fill-opacity:1"
     id="rect18"
     width="166.88651"
     height="82.822083"
     x="89.033737"
     y="941.68713"
     rx="5" /><rect
     style="fill:#ffaaaa;fill-opacity:1"
     id="rect19"
     width="98.972389"
     height="92.760735"
     x="677.07056"
     y="845.61353"
     rx="5" /><rect
     style="fill:#ffaaaa;fill-opacity:1"
     id="rect19-7"
     width="98.972389"
     height="92.760735"
     x="677.07056"
     y="747.61658"
     rx="5" /><path
     id="text11"
     style="font-weight:900;font-size:18.6667px;font-family:'Segoe UI';-inkscape-font-specification:'Segoe UI Heavy';fill:#ffffff"
     d="m 476.49375,1006.3436 v -13.07038 h 3.93751 v 9.98968 h 4.50261 v 3.0807 z m 18.55732,0 v -4.8763 h -4.52084 v 4.8763 h -3.93751 v -13.07038 h 3.93751 v 4.83986 h 4.52084 v -4.83986 h 3.93751 v 13.07038 z M 511.887,925.3735 q 0,3.14453 -1.44011,4.67579 -1.43099,1.52213 -4.42058,1.52213 -2.78907,0 -4.23829,-1.52213 -1.44011,-1.53126 -1.44011,-4.60288 v -7.17319 h 3.95574 v 7.31903 q 0,1.25781 0.46485,1.94141 0.47396,0.67448 1.34896,0.67448 0.88411,0 1.33984,-0.63802 0.46485,-0.63803 0.46485,-1.88673 v -7.41017 h 3.96485 z m 10.88283,5.97006 v -4.87631 h -4.52084 v 4.87631 h -3.93751 v -13.07034 h 3.93751 v 4.83986 h 4.52084 v -4.83986 h 3.93751 v 13.07034 z m 29.80206,113.04434 q 0,1.3034 -0.70182,2.2695 -0.69271,0.9661 -1.95053,1.4401 -1.25781,0.474 -3.02605,0.474 -2.05078,0 -3.75521,-0.6927 v -3.5821 q 0.82031,0.6016 1.8138,0.9753 0.9935,0.3646 1.85027,0.3646 0.64713,0 1.0026,-0.2279 0.35547,-0.237 0.35547,-0.6836 0,-0.319 -0.18229,-0.556 -0.17318,-0.2461 -0.53776,-0.4557 -0.35547,-0.2097 -1.33073,-0.5742 -3.15365,-1.2123 -3.15365,-3.9193 0,-1.8959 1.4401,-3.0261 1.44011,-1.1393 3.86459,-1.1393 0.6836,0 1.25782,0.055 0.57422,0.055 1.03906,0.1367 0.47396,0.082 1.32162,0.3099 v 3.3268 q -1.64974,-0.9023 -3.2448,-0.9023 -0.65625,0 -1.05729,0.2461 -0.40104,0.2461 -0.40104,0.6745 0,0.4101 0.31901,0.6836 0.32812,0.2643 1.35807,0.6927 2.03256,0.8203 2.8711,1.7956 0.84766,0.9752 0.84766,2.3151 z m 13.04299,3.0989 q -0.73828,0.4193 -2.20573,0.7565 -1.46745,0.3282 -2.79818,0.3282 -3.43621,0 -5.3047,-1.7136 -1.86849,-1.7226 -1.86849,-4.8216 0,-2.0781 0.9388,-3.6914 0.94792,-1.6133 2.66146,-2.4518 1.71355,-0.8386 4.03777,-0.8386 1.70443,0 3.63673,0.4831 v 3.4362 q -0.90235,-0.4102 -1.73178,-0.5651 -0.82943,-0.1641 -1.8138,-0.1641 -1.6224,0 -2.58855,0.9753 -0.95703,0.9752 -0.95703,2.6797 0,1.6315 0.80208,2.5521 0.8112,0.9205 2.26042,0.9205 0.67448,0 0.9935,-0.073 v -1.8685 h -2.50652 v -2.9804 h 6.44402 z m 14.09117,0.8568 v -7.1641 q 0,-1.0117 0.0638,-2.2239 l 0.0273,-0.6016 h -0.10938 q -0.29166,1.5404 -0.44661,2.1328 l -1.92313,7.8568 h -3.70053 l -2.01433,-7.7656 q -0.082,-0.2917 -0.42838,-2.224 h -0.10938 q 0.12761,3.0625 0.12761,3.8281 v 6.1615 h -3.45444 v -13.0703 h 5.89715 l 1.79558,7.1002 q 0.0638,0.2188 0.16406,0.8933 0.10937,0.6653 0.13672,1.0299 h 0.0547 q 0.10026,-0.8294 0.31901,-1.9596 l 1.67708,-7.0638 h 5.806 v 13.0703 z m 14.91149,0 v -4.8763 h -4.52084 v 4.8763 h -3.93751 v -13.0703 h 3.93751 v 4.8398 h 4.52084 v -4.8398 h 3.93751 v 13.0703 z m -37.2527,96.543 q -2.08594,0.75 -4.81641,0.75 -2.68359,0 -4.6289,-1.0196 -1.94532,-1.0312 -2.97657,-2.9179 -1.01953,-1.8985 -1.01953,-4.3711 0,-2.6602 1.14844,-4.7344 1.14844,-2.0742 3.24609,-3.1992 2.09766,-1.1367 4.82813,-1.1367 2.17969,0 4.21875,0.5273 v 4.6758 q -0.70313,-0.4219 -1.67578,-0.6563 -0.97266,-0.2343 -1.96875,-0.2343 -2.0625,0 -3.25781,1.1836 -1.1836,1.1836 -1.1836,3.2109 0,2.0156 1.1836,3.1875 1.19531,1.1602 3.1875,1.1602 1.83984,0 3.71484,-0.9375 z m 16.34766,-10.8047 q 0,1.7226 -0.87891,3.0586 -0.86719,1.3359 -2.48438,2.0742 -1.61718,0.7266 -3.76171,0.7266 h -1.54688 v 5.4023 h -5.0625 v -16.8047 h 6.89063 q 3.55078,0 5.1914,1.3477 1.65235,1.3476 1.65235,4.1953 z m -5.35547,0.1758 q 0,-1.0313 -0.59766,-1.5586 -0.59766,-0.5274 -1.75781,-0.5274 h -0.96094 v 4.1485 h 1.13672 q 2.17969,0 2.17969,-2.0625 z m -52.6211,-268.91414 v -6.26953 h -5.8125 v 6.26953 h -5.0625 v -16.80469 h 5.0625 v 6.22266 h 5.8125 v -6.22266 h 5.0625 v 16.80469 z M 347.70468,977.73028 q 0,2.55469 -1.07812,4.52344 -1.06641,1.95703 -3.0586,3.02343 -1.99218,1.06641 -4.59375,1.06641 h -7.11328 v -16.80469 h 6.96094 q 8.88281,0 8.88281,8.19141 z m -5.3789,0.0469 q 0,-1.23047 -0.50391,-2.21484 -0.49219,-0.98438 -1.41797,-1.52344 -0.92578,-0.53906 -2.17969,-0.53906 h -1.30078 v 8.88281 h 1.41797 q 1.81641,0 2.89453,-1.24219 1.08985,-1.2539 1.08985,-3.36328 z m 22.10156,3.41016 q 0,2.47266 -1.73438,3.82031 -1.73437,1.33591 -4.95703,1.33591 h -7.66406 v -16.80469 h 7.13672 q 6.69141,0 6.69141,4.06641 0,0.8789 -0.42188,1.61719 -0.42187,0.72656 -1.28906,1.27734 -0.85547,0.55078 -1.88672,0.75 v 0.0469 q 1.19531,0.14063 2.14453,0.71485 0.94922,0.5625 1.46484,1.41797 0.51563,0.84375 0.51563,1.75781 z m -5.90625,-6.70313 q 0,-1.55859 -2.44922,-1.55859 h -0.9375 v 3.17578 h 1.46484 q 0.84375,0 1.38282,-0.44531 0.53906,-0.45703 0.53906,-1.17188 z m 0.52734,6.67969 q 0,-0.72656 -0.52734,-1.19531 -0.52734,-0.46875 -1.39453,-0.46875 h -1.99219 v 3.43359 h 1.6875 q 1.03125,0 1.62891,-0.46875 0.59765,-0.48047 0.59765,-1.30078 z m 18.48047,5.17966 v -6.26953 h -5.8125 v 6.26953 h -5.0625 v -16.80469 h 5.0625 v 6.22266 h 5.8125 v -6.22266 h 5.0625 v 16.80469 z m -188.09375,-158 h -5.68359 l -5.42578,-16.80469 h 5.44922 l 2.5664,10.34766 q 0.30469,1.2539 0.33985,1.875 h 0.11718 q 0.0703,-0.78516 0.36328,-1.94531 l 2.4961,-10.27735 h 5.27344 z m 17.8125,0 -0.73828,-3.09375 h -5.01562 l -0.79688,3.09375 h -5.47266 l 5.78907,-16.80469 h 6.28125 l 5.44922,16.80469 z m -3.1875,-13.14844 h -0.11719 q -0.0234,0.28125 -0.16406,0.92578 -0.14062,0.64453 -1.41797,5.53125 h 3.21094 L 204.4,817.08184 q -0.2461,-1.00781 -0.33985,-1.88672 z m 86.30469,62.69141 q -2.08594,0.75 -4.81641,0.75 -2.68359,0 -4.6289,-1.01953 -1.94532,-1.03125 -2.97657,-2.91797 -1.01953,-1.89844 -1.01953,-4.3711 0,-2.66015 1.14844,-4.73437 1.14844,-2.07422 3.24609,-3.19922 2.09766,-1.13672 4.82813,-1.13672 2.17969,0 4.21875,0.52735 v 4.67578 q -0.70313,-0.42188 -1.67578,-0.65625 -0.97266,-0.23438 -1.96875,-0.23438 -2.0625,0 -3.25781,1.1836 -1.1836,1.18359 -1.1836,3.21093 0,2.01563 1.1836,3.1875 1.19531,1.16016 3.1875,1.16016 1.83984,0 3.71484,-0.9375 z m 16.34766,-10.80469 q 0,1.72266 -0.87891,3.05859 -0.86719,1.33594 -2.48438,2.07422 -1.61718,0.72657 -3.76171,0.72657 h -1.54688 v 5.40234 h -5.0625 v -16.80469 h 6.89063 q 3.55078,0 5.1914,1.34766 1.65235,1.34765 1.65235,4.19531 z m -5.35547,0.17578 q 0,-1.03125 -0.59766,-1.55859 -0.59766,-0.52735 -1.75781,-0.52735 h -0.96094 v 4.14844 h 1.13672 q 2.17969,0 2.17969,-2.0625 z m 17.89453,11.08594 -0.73828,-3.09375 h -5.01563 l -0.79687,3.09375 h -5.47266 l 5.78906,-16.80469 h 6.28125 l 5.44922,16.80469 z m -3.1875,-13.14844 h -0.11719 q -0.0234,0.28125 -0.16406,0.92578 -0.14063,0.64453 -1.41797,5.53125 h 3.21094 l -1.17188,-4.57031 q -0.24609,-1.00781 -0.33984,-1.88672 z m 23.15625,12.69141 q -2.08594,0.75 -4.81641,0.75 -2.68359,0 -4.6289,-1.01953 -1.94532,-1.03125 -2.97657,-2.91797 -1.01953,-1.89844 -1.01953,-4.3711 0,-2.66015 1.14844,-4.73437 1.14844,-2.07422 3.24609,-3.19922 2.09766,-1.13672 4.82813,-1.13672 2.17969,0 4.21875,0.52735 v 4.67578 q -0.70313,-0.42188 -1.67578,-0.65625 -0.97266,-0.23438 -1.96875,-0.23438 -2.0625,0 -3.25782,1.1836 -1.18359,1.18359 -1.18359,3.21093 0,2.01563 1.18359,3.1875 1.19532,1.16016 3.1875,1.16016 1.83985,0 3.71485,-0.9375 z m 83.84848,-31.53436 q 0,3.90234 -2.51953,6.42187 l 4.4414,4.28906 h -6.35156 l -2.13281,-2.16797 q -0.9375,0.19922 -1.95703,0.19922 -2.36719,0 -4.3125,-1.0664 -1.9336,-1.07813 -3.01172,-3.01172 -1.07813,-1.94531 -1.07813,-4.39453 0,-2.56641 1.08985,-4.61719 1.08984,-2.05078 3.05859,-3.16406 1.96875,-1.125 4.47656,-1.125 2.41407,0 4.3125,1.07812 1.91016,1.06641 2.94141,3.0586 1.04297,1.98046 1.04297,4.5 z m -5.36719,0.14062 q 0,-2.07422 -0.79687,-3.26953 -0.79688,-1.19531 -2.17969,-1.19531 -1.51172,0 -2.35547,1.14843 -0.84375,1.14844 -0.84375,3.2461 0,2.05078 0.83203,3.19922 0.84375,1.14843 2.28516,1.14843 1.37109,0 2.21484,-1.16015 0.84375,-1.16016 0.84375,-3.11719 z m 22.39453,0.63281 q 0,4.04297 -1.85156,6.01172 -1.83984,1.95703 -5.68359,1.95703 -3.58594,0 -5.44922,-1.95703 -1.85156,-1.96875 -1.85156,-5.91797 v -9.22265 h 5.08593 v 9.41015 q 0,1.61719 0.59766,2.4961 0.60937,0.86718 1.73437,0.86718 1.13672,0 1.72266,-0.82031 0.59766,-0.82031 0.59766,-2.42578 v -9.52734 h 5.09765 z m 13.65235,7.67578 -0.73828,-3.09375 h -5.01563 l -0.79687,3.09375 h -5.47266 l 5.78906,-16.80468 h 6.28125 l 5.44922,16.80468 z m -3.1875,-13.14843 h -0.11719 q -0.0234,0.28125 -0.16406,0.92578 -0.14063,0.64453 -1.41797,5.53125 h 3.21094 l -1.17188,-4.57031 q -0.24609,-1.00782 -0.33984,-1.88672 z m 26.49609,4.53515 q 0,2.55469 -1.07812,4.52344 -1.06641,1.95703 -3.0586,3.02344 -1.99219,1.0664 -4.59375,1.0664 h -7.11328 V 837.9967 h 6.96094 q 8.88281,0 8.88281,8.1914 z m -5.37891,0.0469 q 0,-1.23047 -0.5039,-2.21485 -0.49219,-0.98437 -1.41797,-1.52343 -0.92578,-0.53907 -2.17969,-0.53907 h -1.30078 v 8.88282 h 1.41797 q 1.81641,0 2.89453,-1.24219 1.08984,-1.25391 1.08984,-3.36328 z m -180.7379,-70.05941 q -1.6224,0.58333 -3.7461,0.58333 -2.08725,0 -3.60027,-0.79297 -1.51302,-0.80208 -2.31511,-2.26953 -0.79297,-1.47657 -0.79297,-3.39975 0,-2.06901 0.89323,-3.68229 0.89323,-1.61329 2.52475,-2.48829 1.63151,-0.88412 3.75521,-0.88412 1.69532,0 3.28126,0.41016 v 3.63673 q -0.54688,-0.32813 -1.30339,-0.51042 -0.75651,-0.18229 -1.53125,-0.18229 -1.60417,0 -2.53386,0.92057 -0.92058,0.92058 -0.92058,2.4974 0,1.56771 0.92058,2.47917 0.92969,0.90235 2.47917,0.90235 1.43099,0 2.88933,-0.72917 z m 14.46487,-6.21616 q 0,1.96876 -0.84766,3.52735 -0.84766,1.54949 -2.3698,2.41537 -1.52214,0.85677 -3.40886,0.85677 -1.84115,0 -3.35417,-0.82942 -1.50391,-0.83855 -2.34245,-2.34246 -0.83855,-1.51302 -0.83855,-3.41797 0,-1.9961 0.84766,-3.59115 0.84766,-1.59506 2.37891,-2.46094 1.53126,-0.87501 3.48178,-0.87501 1.87761,0 3.35417,0.83855 1.48568,0.82943 2.28777,2.37891 0.8112,1.54036 0.8112,3.5 z m -4.17449,0.10938 q 0,-1.61329 -0.61979,-2.54297 -0.6198,-0.92969 -1.69532,-0.92969 -1.17578,0 -1.83203,0.89323 -0.65625,0.89323 -0.65625,2.52474 0,1.59506 0.64713,2.48829 0.65625,0.89323 1.77735,0.89323 0.68359,0 1.23047,-0.40104 0.54688,-0.40105 0.84766,-1.14844 0.30078,-0.7474 0.30078,-1.77735 z m 17.99222,6.46225 v -7.16408 q 0,-1.01172 0.0638,-2.22396 l 0.0273,-0.60156 h -0.10938 q -0.29167,1.54037 -0.44661,2.13281 l -1.92319,7.85679 h -3.70052 l -2.01433,-7.76564 q -0.082,-0.29167 -0.42839,-2.22396 h -0.10937 q 0.1276,3.0625 0.1276,3.82813 v 6.16147 h -3.45443 v -13.07034 h 5.89715 l 1.79557,7.10028 q 0.0638,0.21875 0.16407,0.89323 0.10937,0.66536 0.13671,1.02995 h 0.0547 q 0.10026,-0.82943 0.31901,-1.95964 l 1.67709,-7.06382 h 5.806 v 13.07034 z m 18.42061,0 v -7.16408 q 0,-1.01172 0.0638,-2.22396 l 0.0273,-0.60156 h -0.10937 q -0.29167,1.54037 -0.44662,2.13281 l -1.92318,7.85679 h -3.70053 l -2.01432,-7.76564 q -0.082,-0.29167 -0.42839,-2.22396 h -0.10937 q 0.1276,3.0625 0.1276,3.82813 v 6.16147 h -3.45443 v -13.07034 h 5.89714 l 1.79558,7.10028 q 0.0638,0.21875 0.16406,0.89323 0.10938,0.66536 0.13672,1.02995 h 0.0547 q 0.10026,-0.82943 0.31901,-1.95964 l 1.67709,-7.06382 h 5.806 v 13.07034 z m 18.88545,-6.57163 q 0,1.96876 -0.84766,3.52735 -0.84766,1.54949 -2.3698,2.41537 -1.52214,0.85677 -3.40886,0.85677 -1.84115,0 -3.35417,-0.82942 -1.50391,-0.83855 -2.34245,-2.34246 -0.83855,-1.51302 -0.83855,-3.41797 0,-1.9961 0.84766,-3.59115 0.84766,-1.59506 2.37891,-2.46094 1.53125,-0.87501 3.48178,-0.87501 1.87761,0 3.35417,0.83855 1.48568,0.82943 2.28777,2.37891 0.8112,1.54036 0.8112,3.5 z m -4.17449,0.10938 q 0,-1.61329 -0.61979,-2.54297 -0.6198,-0.92969 -1.69532,-0.92969 -1.17578,0 -1.83203,0.89323 -0.65626,0.89323 -0.65626,2.52474 0,1.59506 0.64714,2.48829 0.65625,0.89323 1.77735,0.89323 0.68359,0 1.23047,-0.40104 0.54688,-0.40105 0.84766,-1.14844 0.30078,-0.7474 0.30078,-1.77735 z m 15.15758,6.46225 -4.61199,-6.3073 q -0.54688,-0.7474 -0.89323,-1.34896 h -0.0365 q 0.0547,0.96614 0.0547,2.16927 v 5.48699 h -3.64584 v -13.07034 h 3.71876 l 4.42058,5.99741 q 0.082,0.11849 0.20052,0.28255 0.11849,0.16407 0.23698,0.33724 0.11849,0.17318 0.21875,0.33724 0.10937,0.16407 0.16406,0.29167 h 0.0365 q -0.0547,-0.40104 -0.0547,-1.38542 v -5.86069 h 3.64584 v 13.07034 z m 15.10289,-3.95574 q 0,1.30339 -0.70183,2.26954 -0.69271,0.96615 -1.95052,1.44011 -1.25782,0.47395 -3.02605,0.47395 -2.05078,0 -3.75521,-0.6927 v -3.58204 q 0.82031,0.60156 1.8138,0.97526 0.99349,0.36458 1.85027,0.36458 0.64713,0 1.0026,-0.22786 0.35547,-0.23698 0.35547,-0.6836 0,-0.31901 -0.18229,-0.55599 -0.17318,-0.24609 -0.53776,-0.45573 -0.35547,-0.20963 -1.33073,-0.57422 -3.15365,-1.21224 -3.15365,-3.91927 0,-1.89584 1.4401,-3.02605 1.44011,-1.13933 3.86459,-1.13933 0.6836,0 1.25782,0.0547 0.57422,0.0547 1.03906,0.13672 0.47396,0.082 1.32162,0.3099 v 3.32683 q -1.64974,-0.90235 -3.2448,-0.90235 -0.65625,0 -1.05729,0.24609 -0.40105,0.2461 -0.40105,0.67448 0,0.41016 0.31902,0.6836 0.32812,0.26432 1.35807,0.69271 2.03256,0.82031 2.8711,1.79558 0.84766,0.97526 0.84766,2.3151 z M 161.61222,729.64566 v 15.6979 h -6.21614 v -15.6979 h -5.74348 v -4.84114 h 17.77472 v 4.84114 z m 22.54425,9.48176 q 0,2.04818 -1.10287,3.5664 -1.08854,1.51823 -3.0651,2.26302 -1.97656,0.74479 -4.7552,0.74479 -3.22265,0 -5.90104,-1.08854 v -5.6289 q 1.28907,0.94531 2.85026,1.53255 1.5612,0.57292 2.90755,0.57292 1.01693,0 1.57552,-0.35807 0.55859,-0.3724 0.55859,-1.07422 0,-0.5013 -0.28646,-0.8737 -0.27213,-0.38672 -0.84505,-0.71614 -0.55859,-0.32943 -2.09114,-0.90235 -4.95572,-1.90494 -4.95572,-6.15884 0,-2.97917 2.26301,-4.75521 2.26302,-1.79036 6.07291,-1.79036 1.07422,0 1.97656,0.0859 0.90235,0.0859 1.63282,0.21484 0.74479,0.12891 2.07682,0.48698 v 5.22786 q -2.59245,-1.41797 -5.09896,-1.41797 -1.03125,0 -1.66145,0.38672 -0.63021,0.38672 -0.63021,1.0599 0,0.64453 0.5013,1.07421 0.51563,0.41537 2.13411,1.08854 3.19401,1.28906 4.51172,2.82161 1.33203,1.53255 1.33203,3.63802 z m 20.41013,-3.16536 q 0,4.9414 -2.26302,7.34765 -2.2487,2.39192 -6.94661,2.39192 -4.38281,0 -6.66015,-2.39192 -2.26301,-2.40625 -2.26301,-7.23307 v -11.27212 h 6.21613 v 11.50129 q 0,1.97656 0.73047,3.05078 0.74479,1.05989 2.11979,1.05989 1.38932,0 2.10547,-1.0026 0.73047,-1.0026 0.73047,-2.96484 v -11.64452 h 6.23046 z m 34.92713,-117.83464 q 0,2.04818 -1.10287,3.5664 -1.08854,1.51823 -3.0651,2.26302 -1.97656,0.74479 -4.7552,0.74479 -3.22265,0 -5.90103,-1.08854 v -5.6289 q 1.28906,0.94531 2.85025,1.53255 1.5612,0.57292 2.90755,0.57292 1.01693,0 1.57552,-0.35807 0.55859,-0.3724 0.55859,-1.07422 0,-0.5013 -0.28645,-0.8737 -0.27214,-0.38672 -0.84506,-0.71614 -0.55859,-0.32943 -2.09114,-0.90235 -4.95572,-1.90494 -4.95572,-6.15884 0,-2.97917 2.26302,-4.75521 2.26301,-1.79036 6.07291,-1.79036 1.07421,0 1.97656,0.0859 0.90234,0.0859 1.63281,0.21484 0.74479,0.12891 2.07682,0.48698 v 5.22786 q -2.59245,-1.41797 -5.09896,-1.41797 -1.03124,0 -1.66145,0.38672 -0.63021,0.38672 -0.63021,1.0599 0,0.64453 0.5013,1.07421 0.51563,0.41537 2.13411,1.08854 3.19401,1.28906 4.51172,2.82161 1.33203,1.53255 1.33203,3.63802 z m 13.16274,6.21614 -1.53255,-4.42578 q -0.44401,-1.30338 -1.16015,-2.04817 -0.70182,-0.74479 -1.53255,-0.74479 h -0.24349 v 7.21874 h -6.1875 v -20.53904 h 8.22135 q 4.31119,0 6.35937,1.41797 2.06249,1.40364 2.06249,4.22525 0,2.11979 -1.20312,3.55208 -1.1888,1.43229 -3.55208,2.07682 v 0.0573 q 1.30339,0.40104 2.16276,1.30338 0.8737,0.90234 1.5612,2.67838 l 2.01952,5.22786 z m -0.58724,-14.02212 q 0,-1.03125 -0.6302,-1.63281 -0.63021,-0.60156 -1.97656,-0.60156 h -1.27474 v 4.69791 h 1.11718 q 1.2461,0 2.00521,-0.70182 0.75911,-0.70182 0.75911,-1.76172 z m 25.22263,13.46353 q -2.54947,0.91666 -5.88671,0.91666 -3.27994,0 -5.65755,-1.24609 -2.3776,-1.26042 -3.63801,-3.5664 -1.2461,-2.32031 -1.2461,-5.34244 0,-3.2513 1.40365,-5.78646 1.40364,-2.53515 3.96744,-3.91015 2.5638,-1.38932 5.90104,-1.38932 2.66406,0 5.15624,0.64453 v 5.71484 q -0.85937,-0.51563 -2.04817,-0.80208 -1.1888,-0.28646 -2.40625,-0.28646 -2.52083,0 -3.98177,1.44661 -1.44661,1.44661 -1.44661,3.92448 0,2.46354 1.44661,3.89583 1.46094,1.41796 3.89583,1.41796 2.2487,0 4.54036,-1.14583 z m 142.99485,306.55859 v -10.23439 q 0,-1.44531 0.0911,-3.17709 l 0.0391,-0.85937 h -0.15625 q -0.41667,2.20052 -0.63802,3.04688 l -2.74739,11.22397 h -5.28647 l -2.87761,-11.09376 q -0.11718,-0.41667 -0.61198,-3.17709 h -0.15625 q 0.1823,4.375 0.1823,5.46876 v 8.80209 h -4.93491 v -18.6719 h 8.42449 l 2.56511,10.14324 q 0.0912,0.3125 0.23438,1.27605 0.15625,0.95052 0.19531,1.47135 h 0.0781 q 0.14323,-1.18489 0.45573,-2.79948 l 2.39584,-10.09116 h 8.2943 v 18.6719 z m 21.30211,0 v -6.96615 h -6.45834 v 6.96615 h -5.62501 v -18.6719 h 5.62501 v 6.91407 h 6.45834 v -6.91407 h 5.62501 v 18.6719 z m 155.22133,-379 -0.83594,-2.41406 q -0.24218,-0.71094 -0.63281,-1.11719 -0.38281,-0.40625 -0.83594,-0.40625 h -0.13281 v 3.9375 h -3.375 v -11.20313 h 4.48438 q 2.35156,0 3.46875,0.77344 1.125,0.76563 1.125,2.30469 0,1.15625 -0.65625,1.9375 -0.64844,0.78125 -1.9375,1.13281 v 0.0312 q 0.71093,0.21875 1.17968,0.71094 0.47657,0.49219 0.85157,1.46094 l 1.10156,2.85161 z m -0.32031,-7.64844 q 0,-0.5625 -0.34375,-0.89062 -0.34375,-0.32813 -1.07813,-0.32813 h -0.69531 v 2.5625 h 0.60938 q 0.67968,0 1.09375,-0.38281 0.41406,-0.38281 0.41406,-0.96094 z m 15.23437,6.91406 q -0.63281,0.35938 -1.89062,0.64844 -1.25781,0.28125 -2.39844,0.28125 -2.94531,0 -4.54687,-1.46875 -1.60157,-1.47656 -1.60157,-4.13281 0,-1.78125 0.80469,-3.16406 0.8125,-1.38282 2.28125,-2.10157 1.46875,-0.71875 3.46094,-0.71875 1.46094,0 3.11719,0.41407 v 2.94531 q -0.77344,-0.35156 -1.48438,-0.48438 -0.71094,-0.14062 -1.55469,-0.14062 -1.39062,0 -2.21875,0.83594 -0.82031,0.83593 -0.82031,2.29687 0,1.39844 0.6875,2.1875 0.69531,0.78906 1.9375,0.78906 0.57813,0 0.85156,-0.0625 v -1.60156 h -2.14843 v -2.55469 h 5.52343 z m 10.15625,0.42969 q -1.39062,0.5 -3.21093,0.5 -1.78907,0 -3.08594,-0.67969 -1.29688,-0.6875 -1.98438,-1.94531 -0.67968,-1.26562 -0.67968,-2.91406 0,-1.77344 0.76562,-3.15625 0.76563,-1.38281 2.16406,-2.13281 1.39844,-0.75782 3.21875,-0.75782 1.45313,0 2.8125,0.35157 v 3.11718 q -0.46875,-0.28125 -1.11718,-0.4375 -0.64844,-0.15625 -1.3125,-0.15625 -1.375,0 -2.17188,0.78907 -0.78906,0.78906 -0.78906,2.14062 0,1.34375 0.78906,2.125 0.79688,0.77344 2.125,0.77344 1.22656,0 2.47656,-0.625 z M 425.34791,771.83052 q 0,1.91407 -0.97656,3.39845 -0.96354,1.48437 -2.76042,2.30469 -1.79688,0.80729 -4.17969,0.80729 h -1.71875 v 6.00261 h -5.62501 v -18.6719 h 7.65626 q 3.94532,0 5.76823,1.4974 1.83594,1.4974 1.83594,4.66146 z m -5.95052,0.19532 q 0,-1.14584 -0.66407,-1.73178 -0.66406,-0.58594 -1.95312,-0.58594 h -1.06771 v 4.60939 h 1.26302 q 2.42188,0 2.42188,-2.29167 z m 8.17709,12.31772 v -18.6719 h 5.62501 v 14.27085 h 6.4323 v 4.40105 z m -81.43361,-148.8125 -3.31249,-6.31249 q -0.33334,-0.75 -0.39584,-1.03125 h -0.0521 v 7.34374 h -4.49999 v -14.93748 h 4.49999 v 7.10416 h 0.0521 q 0.19792,-0.5625 0.44792,-1.04167 l 2.97916,-6.06249 h 5.33333 l -4.23958,7.12499 4.64583,7.81249 z m 16.12498,0 v -5.57291 h -5.16666 v 5.57291 h -4.5 v -14.93748 h 4.5 v 5.53124 h 5.16666 v -5.53124 h 4.49999 v 14.93748 z m 17.82288,-4.52083 q 0,1.48958 -0.80208,2.59375 -0.79166,1.10416 -2.22916,1.64583 -1.4375,0.54167 -3.45833,0.54167 -2.34375,0 -4.29166,-0.79167 v -4.09374 q 0.9375,0.6875 2.07291,1.11458 1.13542,0.41666 2.11458,0.41666 0.73959,0 1.14583,-0.26041 0.40625,-0.27083 0.40625,-0.78125 0,-0.36458 -0.20833,-0.63542 -0.19792,-0.28125 -0.61458,-0.52083 -0.40625,-0.23958 -1.52083,-0.65625 -3.60416,-1.38541 -3.60416,-4.47916 0,-2.16666 1.64583,-3.45832 1.64583,-1.30209 4.41666,-1.30209 0.78125,0 1.4375,0.0625 0.65624,0.0625 1.18749,0.15625 0.54167,0.0937 1.51042,0.35417 v 3.80208 q -1.88542,-1.03125 -3.70833,-1.03125 -0.75,0 -1.20833,0.28125 -0.45833,0.28125 -0.45833,0.77083 0,0.46875 0.36458,0.78125 0.375,0.30208 1.55208,0.79166 2.32291,0.9375 3.28124,2.05208 0.96875,1.11459 0.96875,2.64583 z m -31.1614,-58.89582 v 11.41665 h -4.52083 v -11.41665 h -4.17707 v -3.52083 h 12.92706 v 3.52083 z m 19.10413,10.43748 q -0.84374,0.47917 -2.52082,0.86459 -1.67709,0.375 -3.19792,0.375 -3.92707,0 -6.06249,-1.95833 -2.13541,-1.96875 -2.13541,-5.51041 0,-2.375 1.07291,-4.21875 1.08334,-1.84374 3.04167,-2.80207 1.95833,-0.95834 4.61457,-0.95834 1.94792,0 4.15625,0.55209 v 3.92707 q -1.03125,-0.46875 -1.97917,-0.64583 -0.94791,-0.1875 -2.07291,-0.1875 -1.85416,0 -2.95833,1.11458 -1.09375,1.11458 -1.09375,3.0625 0,1.86458 0.91667,2.91666 0.92708,1.05208 2.58333,1.05208 0.77083,0 1.13541,-0.0833 v -2.13541 h -2.86458 v -3.40625 h 7.36457 z m 147.92716,25.27084 q 0,1.48958 -0.80209,2.59375 -0.79166,1.10416 -2.22916,1.64583 -1.4375,0.54167 -3.45833,0.54167 -2.34374,0 -4.29166,-0.79167 v -4.09374 q 0.9375,0.6875 2.07292,1.11458 1.13541,0.41666 2.11458,0.41666 0.73958,0 1.14583,-0.26041 0.40625,-0.27083 0.40625,-0.78125 0,-0.36458 -0.20834,-0.63542 -0.19791,-0.28125 -0.61458,-0.52083 -0.40625,-0.23958 -1.52083,-0.65625 -3.60416,-1.38541 -3.60416,-4.47916 0,-2.16666 1.64583,-3.45832 1.64583,-1.30209 4.41666,-1.30209 0.78125,0 1.4375,0.0625 0.65625,0.0625 1.1875,0.15625 0.54166,0.0937 1.51041,0.35417 v 3.80208 q -1.88541,-1.03125 -3.70833,-1.03125 -0.75,0 -1.20833,0.28125 -0.45833,0.28125 -0.45833,0.77083 0,0.46875 0.36458,0.78125 0.375,0.30208 1.55208,0.79166 2.32292,0.9375 3.28125,2.05208 0.96875,1.11459 0.96875,2.64583 z m 11.48956,4.52083 v -5.57291 h -5.16666 v 5.57291 h -4.49999 v -14.93748 h 4.49999 v 5.53124 h 5.16666 v -5.53124 h 4.49999 v 14.93748 z m 18.56247,-0.40625 q -1.85416,0.66667 -4.28124,0.66667 -2.38542,0 -4.11458,-0.90625 -1.72916,-0.91667 -2.64583,-2.59375 -0.90625,-1.6875 -0.90625,-3.88541 0,-2.36458 1.02083,-4.20833 1.02084,-1.84374 2.88542,-2.84374 1.86458,-1.01042 4.29166,-1.01042 1.93749,0 3.74999,0.46875 v 4.15625 q -0.625,-0.375 -1.48958,-0.58334 -0.86458,-0.20833 -1.75,-0.20833 -1.83333,0 -2.89583,1.05208 -1.05208,1.05208 -1.05208,2.85417 0,1.79166 1.05208,2.83332 1.0625,1.03125 2.83333,1.03125 1.63542,0 3.30208,-0.83333 z m 13.43748,0 q -1.85416,0.66667 -4.28124,0.66667 -2.38542,0 -4.11458,-0.90625 -1.72916,-0.91667 -2.64583,-2.59375 -0.90625,-1.6875 -0.90625,-3.88541 0,-2.36458 1.02083,-4.20833 1.02083,-1.84374 2.88542,-2.84374 1.86458,-1.01042 4.29166,-1.01042 1.93749,0 3.74999,0.46875 v 4.15625 q -0.625,-0.375 -1.48958,-0.58334 -0.86458,-0.20833 -1.75,-0.20833 -1.83333,0 -2.89583,1.05208 -1.05208,1.05208 -1.05208,2.85417 0,1.79166 1.05208,2.83332 1.0625,1.03125 2.83333,1.03125 1.63542,0 3.30208,-0.83333 z m -57.76688,156.40625 v -16.80469 h 10.46484 v 3.96094 h -5.40234 v 2.44922 h 5.07421 v 3.96094 h -5.07421 v 2.47265 h 5.78906 v 3.96094 z m 25.74609,-0.45703 q -2.08594,0.75 -4.81641,0.75 -2.68359,0 -4.6289,-1.01953 -1.94532,-1.03125 -2.97657,-2.91797 -1.01953,-1.89844 -1.01953,-4.3711 0,-2.66015 1.14844,-4.73437 1.14844,-2.07422 3.24609,-3.19922 2.09766,-1.13672 4.82813,-1.13672 2.17969,0 4.21875,0.52735 v 4.67578 q -0.70313,-0.42188 -1.67578,-0.65625 -0.97266,-0.23438 -1.96875,-0.23438 -2.0625,0 -3.25781,1.1836 -1.1836,1.18359 -1.1836,3.21093 0,2.01563 1.1836,3.1875 1.19531,1.16016 3.1875,1.16016 1.83984,0 3.71484,-0.9375 z m 160.2752,-204.36559 q 0,1.86198 -1.0026,3.24219 -0.98959,1.38021 -2.78646,2.0573 -1.79688,0.67708 -4.32293,0.67708 -2.92969,0 -5.36459,-0.98958 v -5.1172 q 1.17188,0.85938 2.59115,1.39323 1.41928,0.52084 2.64324,0.52084 0.92448,0 1.43229,-0.32552 0.50781,-0.33855 0.50781,-0.97657 0,-0.45573 -0.26042,-0.79427 -0.24739,-0.35156 -0.76823,-0.65104 -0.50781,-0.29948 -1.90104,-0.82032 -4.50521,-1.73177 -4.50521,-5.59896 0,-2.70834 2.05729,-4.32292 2.0573,-1.62761 5.52084,-1.62761 0.97656,0 1.79688,0.0781 0.82031,0.0781 1.48438,0.19531 0.67708,0.11719 1.88802,0.44271 v 4.75261 q -2.35678,-1.28907 -4.63542,-1.28907 -0.93751,0 -1.51042,0.35157 -0.57292,0.35156 -0.57292,0.96354 0,0.58594 0.45573,0.97656 0.46875,0.37761 1.94011,0.98959 2.90365,1.17187 4.10156,2.56511 1.21094,1.39323 1.21094,3.30729 z m 14.362,5.65105 v -6.96615 h -6.45834 v 6.96615 h -5.62501 v -18.6719 h 5.62501 v 6.91407 h 6.45834 v -6.91407 h 5.62501 v 18.6719 z M 571.6485,213.67694 l -0.82031,-3.43751 h -5.57293 l -0.88541,3.43751 h -6.08074 l 6.4323,-18.6719 h 6.97917 l 6.0547,18.6719 z m -3.54167,-14.6094 h -0.13021 q -0.026,0.3125 -0.18229,1.02865 -0.15625,0.71615 -1.57552,6.14584 h 3.56771 l -1.30209,-5.07813 q -0.27343,-1.11979 -0.3776,-2.09636 z m 21.52346,14.6094 -1.39323,-4.02345 q -0.40364,-1.18489 -1.05469,-1.86198 -0.63802,-0.67708 -1.39323,-0.67708 h -0.22135 v 6.56251 h -5.62501 v -18.6719 h 7.47397 q 3.91927,0 5.78126,1.28906 1.875,1.27604 1.875,3.84115 0,1.92709 -1.09375,3.22917 -1.08073,1.30209 -3.22917,1.88803 v 0.0521 q 1.18489,0.36458 1.96614,1.1849 0.79428,0.82031 1.41928,2.4349 l 1.83594,4.75261 z m -0.53385,-12.74742 q 0,-0.9375 -0.57292,-1.48437 -0.57292,-0.54688 -1.79688,-0.54688 h -1.15885 v 4.27084 h 1.01562 q 1.13282,0 1.82292,-0.63802 0.69011,-0.63802 0.69011,-1.60157 z m 24.98701,7.01824 q 0,2.7474 -1.92709,4.2448 -1.92708,1.48438 -5.50782,1.48438 h -8.51563 v -18.6719 h 7.9297 q 7.4349,0 7.4349,4.51823 0,0.97657 -0.46875,1.79688 -0.46875,0.80729 -1.43229,1.41927 -0.95053,0.61198 -2.09636,0.83334 v 0.0521 q 1.32813,0.15625 2.38281,0.79427 1.05469,0.625 1.62761,1.57552 0.57292,0.93751 0.57292,1.95313 z m -6.56251,-7.44792 q 0,-1.73178 -2.72136,-1.73178 h -1.04167 v 3.52865 h 1.62761 q 0.9375,0 1.53646,-0.49479 0.59896,-0.50781 0.59896,-1.30208 z m 0.58594,7.42188 q 0,-0.80729 -0.58594,-1.32813 -0.58594,-0.52083 -1.54948,-0.52083 h -2.21355 v 3.81511 h 1.87501 q 1.14583,0 1.8099,-0.52084 0.66406,-0.53385 0.66406,-1.44531 z m 26.21097,-3.63282 q 0,2.81251 -1.21094,5.03907 -1.21094,2.21355 -3.38542,3.45053 -2.17448,1.22396 -4.8698,1.22396 -2.63021,0 -4.79167,-1.1849 -2.14844,-1.19792 -3.34636,-3.34636 -1.19792,-2.16146 -1.19792,-4.88282 0,-2.85156 1.21094,-5.13021 1.21094,-2.27865 3.39844,-3.51563 2.18751,-1.25 4.97397,-1.25 2.68229,0 4.79167,1.19791 2.1224,1.1849 3.26823,3.39845 1.15886,2.20052 1.15886,5 z m -5.96355,0.15625 q 0,-2.30469 -0.88542,-3.63281 -0.88541,-1.32813 -2.42188,-1.32813 -1.67968,0 -2.61719,1.27604 -0.9375,1.27605 -0.9375,3.60678 0,2.27865 0.92448,3.55469 0.9375,1.27604 2.53907,1.27604 0.97656,0 1.75781,-0.57291 0.78125,-0.57292 1.21094,-1.64063 0.42969,-1.06771 0.42969,-2.53907 z m 18.29429,9.23179 -1.39323,-4.02345 q -0.40364,-1.18489 -1.05469,-1.86198 -0.63802,-0.67708 -1.39323,-0.67708 h -0.22135 v 6.56251 h -5.62501 v -18.6719 h 7.47397 q 3.91928,0 5.78126,1.28906 1.875,1.27604 1.875,3.84115 0,1.92709 -1.09375,3.22917 -1.08073,1.30209 -3.22917,1.88803 v 0.0521 q 1.18489,0.36458 1.96615,1.1849 0.79427,0.82031 1.41927,2.4349 l 1.83594,4.75261 z m -0.53385,-12.74742 q 0,-0.9375 -0.57292,-1.48437 -0.57292,-0.54688 -1.79688,-0.54688 h -1.15885 v 4.27084 h 1.01563 q 1.13281,0 1.82291,-0.63802 0.69011,-0.63802 0.69011,-1.60157 z m 9.03647,12.74742 v -18.6719 h 11.62762 v 4.40104 h -6.00262 v 2.72136 h 5.63803 v 4.40105 h -5.63803 v 2.7474 h 6.4323 v 4.40105 z m 24.15367,-14.27086 v 14.27086 h -5.65104 v -14.27086 h -5.22136 v -4.40104 h 16.15887 v 4.40104 z m 23.80212,5.7422 q 0,4.49219 -2.05729,6.67969 -2.04428,2.17449 -6.31511,2.17449 -3.98438,0 -6.0547,-2.17449 -2.05729,-2.1875 -2.05729,-6.57552 v -10.24741 h 5.65105 v 10.45574 q 0,1.79688 0.66406,2.77344 0.67708,0.96354 1.92708,0.96354 1.26303,0 1.91407,-0.91146 0.66406,-0.91146 0.66406,-2.69531 v -10.58595 h 5.66407 z m 20.55992,8.52866 v -10.23439 q 0,-1.44532 0.0911,-3.17709 l 0.0391,-0.85938 h -0.15625 q -0.41666,2.20053 -0.63802,3.04688 l -2.7474,11.22398 h -5.28646 l -2.87761,-11.09377 q -0.11719,-0.41667 -0.61198,-3.17709 h -0.15625 q 0.18229,4.37501 0.18229,5.46876 v 8.8021 h -4.9349 v -18.6719 h 8.42449 l 2.56511,10.14324 q 0.0911,0.3125 0.23437,1.27604 0.15625,0.95052 0.19531,1.47136 h 0.0781 q 0.14323,-1.1849 0.45573,-2.79948 l 2.39584,-10.09116 h 8.29428 v 18.6719 z M 570.86074,166.07271 v 3.35938 h 5.54688 v 4.40105 h -5.54688 v 6.51042 h -5.62501 v -18.6719 h 11.70575 v 4.40105 z m 25.07816,5.74219 q 0,4.4922 -2.0573,6.6797 -2.04427,2.17448 -6.31511,2.17448 -3.98438,0 -6.0547,-2.17448 -2.05729,-2.1875 -2.05729,-6.57553 v -10.24741 h 5.65105 v 10.45574 q 0,1.79688 0.66406,2.77344 0.67709,0.96355 1.92709,0.96355 1.26302,0 1.91406,-0.91146 0.66407,-0.91146 0.66407,-2.69532 v -10.58595 h 5.66407 z m 3.46354,8.52866 v -18.6719 h 5.62501 v 14.27085 h 6.4323 v 4.40105 z m 14.4271,0 v -18.6719 h 5.62501 v 14.27085 h 6.4323 v 4.40105 z m 14.4271,0 v -18.6719 h 11.62762 v 4.40105 h -6.00261 v 2.72136 h 5.63803 v 4.40104 h -5.63803 v 2.7474 h 6.4323 v 4.40105 z m 24.40108,0 -1.39323,-4.02344 q -0.40365,-1.1849 -1.05469,-1.86198 -0.63802,-0.67709 -1.39323,-0.67709 h -0.22136 v 6.56251 h -5.625 v -18.6719 h 7.47396 q 3.91928,0 5.78126,1.28907 1.875,1.27604 1.875,3.84115 0,1.92708 -1.09375,3.22917 -1.08073,1.30208 -3.22917,1.88802 v 0.0521 q 1.1849,0.36459 1.96615,1.1849 0.79427,0.82031 1.41927,2.4349 l 1.83594,4.75259 z m -0.53386,-12.74741 q 0,-0.9375 -0.57291,-1.48438 -0.57292,-0.54687 -1.79688,-0.54687 h -1.15886 v 4.27083 h 1.01563 q 1.13281,0 1.82292,-0.63802 0.6901,-0.63802 0.6901,-1.60156 z m 18.47659,-1.52344 v 14.27085 h -5.65105 v -14.27085 h -5.22136 v -4.40105 h 16.15887 v 4.40105 z m 25.28648,4.88282 q 0,2.8125 -1.21094,5.03907 -1.21093,2.21354 -3.38542,3.45052 -2.17448,1.22396 -4.86979,1.22396 -2.63022,0 -4.79168,-1.1849 -2.14844,-1.19791 -3.34636,-3.34635 -1.19791,-2.16147 -1.19791,-4.88282 0,-2.85157 1.21094,-5.13022 1.21093,-2.27865 3.39844,-3.51563 2.1875,-1.25 4.97396,-1.25 2.6823,0 4.79167,1.19792 2.1224,1.1849 3.26824,3.39844 1.15885,2.20052 1.15885,5.00001 z m -5.96355,0.15625 q 0,-2.30469 -0.88541,-3.63282 -0.88542,-1.32813 -2.42188,-1.32813 -1.67969,0 -2.61719,1.27605 -0.9375,1.27604 -0.9375,3.60677 0,2.27865 0.92448,3.55469 0.9375,1.27605 2.53906,1.27605 0.97657,0 1.75782,-0.57292 0.78125,-0.57292 1.21094,-1.64063 0.42968,-1.06771 0.42968,-2.53906 z m 21.65368,9.23178 -6.58855,-9.01043 q -0.78125,-1.06771 -1.27605,-1.92708 h -0.0521 q 0.0781,1.38021 0.0781,3.09896 v 7.83855 h -5.20834 v -18.6719 h 5.3125 l 6.31511,8.56772 q 0.11719,0.16927 0.28646,0.40365 0.16927,0.23437 0.33855,0.48177 0.16927,0.24739 0.3125,0.48177 0.15625,0.23438 0.23437,0.41667 h 0.0521 q -0.0781,-0.57292 -0.0781,-1.97917 v -8.37241 h 5.20834 v 18.6719 z m -307.10805,334.927 q -1.85417,0.66667 -4.28125,0.66667 -2.38541,0 -4.11457,-0.90625 -1.72917,-0.91667 -2.64583,-2.59375 -0.90625,-1.6875 -0.90625,-3.88541 0,-2.36458 1.02083,-4.20833 1.02083,-1.84374 2.88541,-2.84374 1.86458,-1.01042 4.29166,-1.01042 1.9375,0 3.75,0.46875 v 4.15625 q -0.625,-0.375 -1.48958,-0.58334 -0.86459,-0.20833 -1.75,-0.20833 -1.83333,0 -2.89583,1.05208 -1.05208,1.05208 -1.05208,2.85416 0,1.79167 1.05208,2.83333 1.0625,1.03125 2.83333,1.03125 1.63541,0 3.30208,-0.83333 z m 16.53122,-7.10416 q 0,2.25 -0.96875,4.03125 -0.96875,1.77083 -2.70833,2.76041 -1.73958,0.97917 -3.89582,0.97917 -2.10417,0 -3.83333,-0.94792 -1.71875,-0.95833 -2.67708,-2.67708 -0.95833,-1.72916 -0.95833,-3.90624 0,-2.28125 0.96875,-4.10416 0.96875,-1.82292 2.71874,-2.8125 1.75,-1 3.97916,-1 2.14583,0 3.83333,0.95833 1.69791,0.94792 2.61458,2.71875 0.92708,1.76041 0.92708,3.99999 z m -4.77082,0.125 q 0,-1.84374 -0.70834,-2.90624 -0.70833,-1.0625 -1.93749,-1.0625 -1.34375,0 -2.09375,1.02083 -0.75,1.02083 -0.75,2.88541 0,1.82292 0.73958,2.84375 0.75,1.02083 2.03125,1.02083 0.78125,0 1.40625,-0.45833 0.625,-0.45833 0.96875,-1.3125 0.34375,-0.85416 0.34375,-2.03125 z m 20.56246,7.38541 v -8.18749 q 0,-1.15625 0.0729,-2.54166 l 0.0312,-0.6875 h -0.125 q -0.33333,1.76041 -0.51042,2.4375 l -2.19791,8.97915 h -4.22916 l -2.30208,-8.87499 q -0.0937,-0.33333 -0.48958,-2.54166 h -0.125 q 0.14583,3.49999 0.14583,4.37499 v 7.04166 h -3.94791 v -14.93748 h 6.73957 l 2.05208,8.11457 q 0.0729,0.25 0.1875,1.02083 0.125,0.76042 0.15625,1.17709 h 0.0625 q 0.11459,-0.94792 0.36459,-2.23958 l 1.91666,-8.07291 h 6.63541 v 14.93748 z m 19.58331,-10.0104 q 0,1.53125 -0.78125,2.71874 -0.77084,1.1875 -2.20833,1.84375 -1.4375,0.64583 -3.34375,0.64583 h -1.375 v 4.80208 h -4.49999 v -14.93748 h 6.12499 q 3.15625,0 4.61458,1.19792 1.46875,1.19791 1.46875,3.72916 z m -4.76041,0.15625 q 0,-0.91667 -0.53125,-1.38542 -0.53125,-0.46875 -1.5625,-0.46875 h -0.85417 v 3.6875 h 1.01042 q 1.9375,0 1.9375,-1.83333 z m 6.54165,9.85415 v -14.93748 h 4.49999 v 11.41665 h 5.14583 v 3.52083 z m 11.54165,0 v -14.93748 h 9.30207 v 3.52083 h -4.80208 v 2.17708 h 4.51041 v 3.52083 h -4.51041 v 2.19791 h 5.14583 v 3.52083 z m 19.98955,0 -1.85416,-4.09374 q -0.17709,-0.38542 -0.23959,-0.75 -0.0521,-0.375 -0.0833,-0.61459 h -0.0417 q -0.0625,0.25 -0.14583,0.65625 -0.0833,0.40625 -0.23958,0.79167 l -1.72917,4.01041 h -5.35416 l 4.47916,-7.44791 -4.07291,-7.48957 h 5.4375 l 1.44791,3.94791 q 0.19792,0.55209 0.36458,1.45833 h 0.0417 q 0.16667,-1.02083 0.38542,-1.47916 l 1.68749,-3.92708 h 5.01041 l -4.19791,7.40624 4.39583,7.53124 z m -65.69781,-31.18745 q 0,1.48958 -0.80208,2.59374 -0.79167,1.10417 -2.22917,1.64583 -1.43749,0.54167 -3.45832,0.54167 -2.34375,0 -4.29166,-0.79166 v -4.09375 q 0.9375,0.6875 2.07291,1.11458 1.13542,0.41667 2.11458,0.41667 0.73958,0 1.14583,-0.26042 0.40625,-0.27083 0.40625,-0.78125 0,-0.36458 -0.20833,-0.63541 -0.19792,-0.28125 -0.61458,-0.52083 -0.40625,-0.23959 -1.52084,-0.65625 -3.60416,-1.38542 -3.60416,-4.47916 0,-2.16667 1.64583,-3.45833 1.64584,-1.30208 4.41666,-1.30208 0.78125,0 1.4375,0.0625 0.65625,0.0625 1.1875,0.15625 0.54167,0.0937 1.51041,0.35416 v 3.80208 q -1.88541,-1.03125 -3.70832,-1.03125 -0.75,0 -1.20833,0.28125 -0.45834,0.28125 -0.45834,0.77083 0,0.46875 0.36459,0.78125 0.37499,0.30209 1.55208,0.79167 2.32291,0.9375 3.28124,2.05208 0.96875,1.11458 0.96875,2.64583 z m 14.03123,-5.48958 q 0,1.53125 -0.78125,2.71875 -0.77083,1.1875 -2.20833,1.84375 -1.4375,0.64583 -3.34375,0.64583 h -1.37499 v 4.80207 h -4.5 v -14.93747 h 6.12499 q 3.15625,0 4.61458,1.19791 1.46875,1.19792 1.46875,3.72916 z m -4.76041,0.15625 q 0,-0.91666 -0.53125,-1.38541 -0.53125,-0.46875 -1.5625,-0.46875 h -0.85416 v 3.68749 h 1.01041 q 1.9375,0 1.9375,-1.83333 z m 20.74997,2.34375 q 0,2.25 -0.96875,4.03124 -0.96875,1.77083 -2.70833,2.76042 -1.73958,0.97916 -3.89583,0.97916 -2.10416,0 -3.83333,-0.94791 -1.71874,-0.95834 -2.67708,-2.67708 -0.95833,-1.72917 -0.95833,-3.90625 0,-2.28124 0.96875,-4.10416 0.96875,-1.82291 2.71875,-2.81249 1.74999,-1 3.97916,-1 2.14583,0 3.83332,0.95833 1.69792,0.94792 2.61458,2.71875 0.92709,1.76041 0.92709,3.99999 z m -4.77083,0.125 q 0,-1.84375 -0.70833,-2.90625 -0.70834,-1.06249 -1.9375,-1.06249 -1.34375,0 -2.09375,1.02083 -0.75,1.02083 -0.75,2.88541 0,1.82291 0.73959,2.84375 0.75,1.02083 2.03124,1.02083 0.78125,0 1.40625,-0.45834 0.625,-0.45833 0.96875,-1.31249 0.34375,-0.85417 0.34375,-2.03125 z m 14.63539,7.3854 -1.11458,-3.21874 q -0.32291,-0.94792 -0.84375,-1.48958 -0.51041,-0.54167 -1.11458,-0.54167 h -0.17708 v 5.24999 h -4.49999 v -14.93747 h 5.97915 q 3.13541,0 4.625,1.03125 1.49999,1.02083 1.49999,3.07291 0,1.54166 -0.875,2.58333 -0.86458,1.04166 -2.58332,1.51041 v 0.0417 q 0.94791,0.29166 1.57291,0.94791 0.63541,0.65625 1.13541,1.94792 l 1.46875,3.80207 z m -0.42708,-10.1979 q 0,-0.74999 -0.45833,-1.18749 -0.45833,-0.4375 -1.4375,-0.4375 h -0.92708 v 3.41666 h 0.8125 q 0.90625,0 1.45833,-0.51042 0.55208,-0.51041 0.55208,-1.28125 z m 14.78123,-1.21874 v 11.41664 h -4.52083 v -11.41664 h -4.17708 v -3.52083 h 12.92707 v 3.52083 z m 16.39581,6.89582 q 0,1.48958 -0.80209,2.59374 -0.79166,1.10417 -2.22916,1.64583 -1.4375,0.54167 -3.45833,0.54167 -2.34374,0 -4.29166,-0.79166 v -4.09375 q 0.9375,0.6875 2.07292,1.11458 1.13541,0.41667 2.11458,0.41667 0.73958,0 1.14583,-0.26042 0.40625,-0.27083 0.40625,-0.78125 0,-0.36458 -0.20833,-0.63541 -0.19792,-0.28125 -0.61459,-0.52083 -0.40625,-0.23959 -1.52083,-0.65625 -3.60416,-1.38542 -3.60416,-4.47916 0,-2.16667 1.64583,-3.45833 1.64583,-1.30208 4.41666,-1.30208 0.78125,0 1.4375,0.0625 0.65625,0.0625 1.1875,0.15625 0.54166,0.0937 1.51041,0.35416 v 3.80208 q -1.88541,-1.03125 -3.70833,-1.03125 -0.74999,0 -1.20833,0.28125 -0.45833,0.28125 -0.45833,0.77083 0,0.46875 0.36458,0.78125 0.375,0.30209 1.55208,0.79167 2.32292,0.9375 3.28125,2.05208 0.96875,1.11458 0.96875,2.64583 z m -58.53116,-33.56245 v 11.41665 h -4.52083 v -11.41665 h -4.17708 v -3.52083 h 12.92707 v 3.52083 z m 6.02082,11.41665 v -14.93748 h 4.49999 v 14.93748 z m 14.98956,-11.41665 v 11.41665 h -4.52083 v -11.41665 h -4.17707 v -3.52083 h 12.92706 v 3.52083 z m 15.38539,11.41665 -0.65625,-2.75 h -4.45832 l -0.70833,2.75 h -4.86458 l 5.14583,-14.93748 h 5.58332 l 4.84374,14.93748 z m -2.83333,-11.68748 h -0.10416 q -0.0208,0.25 -0.14584,0.82291 -0.125,0.57292 -1.26041,4.91666 h 2.85416 l -1.04166,-4.06249 q -0.21875,-0.89583 -0.30209,-1.67708 z m 19.90622,11.68748 -5.27082,-7.20832 q -0.625,-0.85417 -1.02084,-1.54167 h -0.0417 q 0.0625,1.10417 0.0625,2.47917 v 6.27082 h -4.16666 v -14.93748 h 4.24999 l 5.05208,6.85416 q 0.0937,0.13542 0.22916,0.32292 0.13542,0.1875 0.27084,0.38541 0.13541,0.19792 0.25,0.38542 0.125,0.1875 0.18749,0.33333 h 0.0417 q -0.0625,-0.45833 -0.0625,-1.58333 v -6.69791 h 4.16666 v 14.93748 z m 200.55142,313.29291 v -14.93748 h 9.30207 v 3.52083 h -4.80207 v 2.17708 h 4.51041 v 3.52083 h -4.51041 v 2.19791 h 5.14582 v 3.52083 z m 23.97913,-10.0104 q 0,1.53124 -0.78125,2.71874 -0.77083,1.1875 -2.20833,1.84375 -1.43749,0.64583 -3.34374,0.64583 h -1.375 v 4.80208 h -4.49999 v -14.93748 h 6.12499 q 3.15624,0 4.61458,1.19792 1.46874,1.19791 1.46874,3.72916 z m -4.76041,0.15625 q 0,-0.91667 -0.53125,-1.38542 -0.53124,-0.46875 -1.56249,-0.46875 h -0.85417 v 3.6875 h 1.01042 q 1.93749,0 1.93749,-1.83333 z m 16.91664,5.33332 q 0,1.48958 -0.80208,2.59375 -0.79166,1.10416 -2.22916,1.64583 -1.4375,0.54166 -3.45833,0.54166 -2.34375,0 -4.29166,-0.79166 v -4.09374 q 0.9375,0.68749 2.07291,1.11458 1.13542,0.41666 2.11458,0.41666 0.73959,0 1.14584,-0.26041 0.40625,-0.27084 0.40625,-0.78125 0,-0.36459 -0.20834,-0.63542 -0.19791,-0.28125 -0.61458,-0.52083 -0.40625,-0.23958 -1.52083,-0.65625 -3.60416,-1.38541 -3.60416,-4.47916 0,-2.16666 1.64583,-3.45833 1.64583,-1.30208 4.41666,-1.30208 0.78125,0 1.4375,0.0625 0.65624,0.0625 1.18749,0.15625 0.54167,0.0937 1.51042,0.35417 v 3.80207 q -1.88542,-1.03124 -3.70833,-1.03124 -0.75,0 -1.20833,0.28125 -0.45833,0.28125 -0.45833,0.77083 0,0.46875 0.36458,0.78125 0.375,0.30208 1.55208,0.79166 2.32291,0.9375 3.28125,2.05208 0.96874,1.11458 0.96874,2.64583 z m 7.77082,0.42708 v -2.98957 h 5.69791 v 2.98957 z m 25.03122,4.09375 -5.27083,-7.20832 q -0.625,-0.85417 -1.02083,-1.54167 h -0.0417 q 0.0625,1.10417 0.0625,2.47916 v 6.27083 h -4.16666 v -14.93748 h 4.25 l 5.05207,6.85416 q 0.0937,0.13541 0.22917,0.32291 0.13541,0.1875 0.27083,0.38542 0.13542,0.19792 0.25,0.38542 0.125,0.1875 0.1875,0.33333 h 0.0417 q -0.0625,-0.45833 -0.0625,-1.58333 v -6.69791 h 4.16666 v 14.93748 z m -66.93215,97.24261 v -14.93747 h 9.30207 v 3.52082 h -4.80207 v 2.17708 h 4.51041 v 3.52083 h -4.51041 v 2.19791 h 5.14582 v 3.52083 z m 23.97913,-10.0104 q 0,1.53125 -0.78125,2.71875 -0.77083,1.1875 -2.20833,1.84374 -1.43749,0.64584 -3.34374,0.64584 h -1.375 v 4.80207 h -4.49999 v -14.93747 h 6.12499 q 3.15624,0 4.61457,1.19791 1.46875,1.19792 1.46875,3.72916 z m -4.76041,0.15625 q 0,-0.91666 -0.53125,-1.38541 -0.53125,-0.46875 -1.56249,-0.46875 h -0.85417 v 3.68749 h 1.01042 q 1.93749,0 1.93749,-1.83333 z m 16.91664,5.33333 q 0,1.48958 -0.80208,2.59374 -0.79166,1.10417 -2.22916,1.64583 -1.4375,0.54167 -3.45833,0.54167 -2.34375,0 -4.29166,-0.79167 v -4.09374 q 0.9375,0.6875 2.07291,1.11458 1.13542,0.41667 2.11458,0.41667 0.73959,0 1.14583,-0.26042 0.40625,-0.27083 0.40625,-0.78125 0,-0.36458 -0.20833,-0.63541 -0.19792,-0.28125 -0.61458,-0.52084 -0.40625,-0.23958 -1.52083,-0.65624 -3.60416,-1.38542 -3.60416,-4.47916 0,-2.16667 1.64583,-3.45833 1.64583,-1.30208 4.41666,-1.30208 0.78125,0 1.4375,0.0625 0.65624,0.0625 1.18749,0.15625 0.54167,0.0937 1.51042,0.35416 v 3.80208 q -1.88542,-1.03125 -3.70833,-1.03125 -0.75,0 -1.20833,0.28125 -0.45833,0.28125 -0.45833,0.77083 0,0.46875 0.36458,0.78125 0.375,0.30208 1.55208,0.79167 2.32291,0.9375 3.28124,2.05208 0.96875,1.11458 0.96875,2.64583 z m 7.77082,0.42708 v -2.98958 h 5.69791 v 2.98958 z m 24.96872,-0.42708 q 0,1.48958 -0.80209,2.59374 -0.79166,1.10417 -2.22916,1.64583 -1.4375,0.54167 -3.45833,0.54167 -2.34374,0 -4.29166,-0.79167 v -4.09374 q 0.9375,0.6875 2.07292,1.11458 1.13541,0.41667 2.11458,0.41667 0.73958,0 1.14583,-0.26042 0.40625,-0.27083 0.40625,-0.78125 0,-0.36458 -0.20834,-0.63541 -0.19791,-0.28125 -0.61458,-0.52084 -0.40625,-0.23958 -1.52083,-0.65624 -3.60416,-1.38542 -3.60416,-4.47916 0,-2.16667 1.64583,-3.45833 1.64583,-1.30208 4.41666,-1.30208 0.78125,0 1.4375,0.0625 0.65625,0.0625 1.1875,0.15625 0.54166,0.0937 1.51041,0.35416 v 3.80208 q -1.88541,-1.03125 -3.70833,-1.03125 -0.75,0 -1.20833,0.28125 -0.45833,0.28125 -0.45833,0.77083 0,0.46875 0.36458,0.78125 0.375,0.30208 1.55208,0.79167 2.32292,0.9375 3.28125,2.05208 0.96875,1.11458 0.96875,2.64583 z m -542.87937,95.9853 -5.27082,-7.20832 q -0.625,-0.85417 -1.02084,-1.54167 h -0.0417 q 0.0625,1.10417 0.0625,2.47917 v 6.27082 h -4.16666 v -14.93748 h 4.24999 l 5.05208,6.85416 q 0.0937,0.13542 0.22916,0.32292 0.13542,0.1875 0.27084,0.38541 0.13541,0.19792 0.25,0.38542 0.12499,0.1875 0.18749,0.33333 h 0.0417 q -0.0625,-0.45833 -0.0625,-1.58333 v -6.69791 h 4.16666 v 14.93748 z m 19.09372,-10.0104 q 0,1.53125 -0.78125,2.71874 -0.77083,1.1875 -2.20833,1.84375 -1.4375,0.64583 -3.34374,0.64583 h -1.375 v 4.80208 h -4.49999 v -14.93748 h 6.12499 q 3.15624,0 4.61457,1.19792 1.46875,1.19791 1.46875,3.72916 z m -4.76041,0.15625 q 0,-0.91667 -0.53125,-1.38542 -0.53125,-0.46874 -1.56249,-0.46874 h -0.85417 v 3.68749 h 1.01041 q 1.9375,0 1.9375,-1.83333 z m 16.91664,5.33332 q 0,1.48958 -0.80208,2.59375 -0.79167,1.10416 -2.22916,1.64583 -1.4375,0.54167 -3.45833,0.54167 -2.34375,0 -4.29166,-0.79167 v -4.09374 q 0.9375,0.6875 2.07291,1.11458 1.13542,0.41666 2.11458,0.41666 0.73958,0 1.14583,-0.26041 0.40625,-0.27083 0.40625,-0.78125 0,-0.36458 -0.20833,-0.63542 -0.19792,-0.28125 -0.61458,-0.52083 -0.40625,-0.23958 -1.52083,-0.65625 -3.60416,-1.38541 -3.60416,-4.47916 0,-2.16666 1.64583,-3.45832 1.64583,-1.30209 4.41666,-1.30209 0.78124,0 1.43749,0.0625 0.65625,0.0625 1.1875,0.15625 0.54167,0.0937 1.51042,0.35417 v 3.80208 q -1.88542,-1.03125 -3.70833,-1.03125 -0.75,0 -1.20833,0.28125 -0.45834,0.28125 -0.45834,0.77083 0,0.46875 0.36459,0.78125 0.375,0.30208 1.55208,0.79166 2.32291,0.9375 3.28124,2.05208 0.96875,1.11459 0.96875,2.64583 z m -90.5843,-381 q 0,1.48958 -0.80208,2.59375 -0.79167,1.10416 -2.22916,1.64583 -1.4375,0.54167 -3.45833,0.54167 -2.34375,0 -4.29166,-0.79167 v -4.09374 q 0.9375,0.6875 2.07291,1.11458 1.13542,0.41666 2.11458,0.41666 0.73958,0 1.14583,-0.26041 0.40625,-0.27083 0.40625,-0.78125 0,-0.36458 -0.20833,-0.63542 -0.19792,-0.28125 -0.61458,-0.52083 -0.40625,-0.23958 -1.52083,-0.65625 -3.60417,-1.38541 -3.60417,-4.47916 0,-2.16666 1.64584,-3.45832 1.64583,-1.30209 4.41666,-1.30209 0.78124,0 1.43749,0.0625 0.65625,0.0625 1.1875,0.15625 0.54167,0.0937 1.51042,0.35417 v 3.80208 q -1.88542,-1.03125 -3.70833,-1.03125 -0.75,0 -1.20833,0.28125 -0.45834,0.28125 -0.45834,0.77083 0,0.46875 0.36459,0.78125 0.375,0.30208 1.55208,0.79166 2.32291,0.9375 3.28124,2.05208 0.96875,1.11459 0.96875,2.64583 z m 12.93748,4.11458 q -1.85416,0.66667 -4.28124,0.66667 -2.38542,0 -4.11458,-0.90625 -1.72916,-0.91667 -2.64583,-2.59375 -0.90625,-1.6875 -0.90625,-3.88541 0,-2.36458 1.02083,-4.20833 1.02084,-1.84374 2.88542,-2.84374 1.86458,-1.01042 4.29166,-1.01042 1.93749,0 3.74999,0.46875 v 4.15625 q -0.625,-0.375 -1.48958,-0.58334 -0.86458,-0.20833 -1.75,-0.20833 -1.83333,0 -2.89583,1.05208 -1.05208,1.05208 -1.05208,2.85417 0,1.79166 1.05208,2.83332 1.0625,1.03125 2.83333,1.03125 1.63542,0 3.30208,-0.83333 z m 14.53123,-9.60415 q 0,1.53125 -0.78125,2.71874 -0.77083,1.1875 -2.20833,1.84375 -1.4375,0.64583 -3.34375,0.64583 h -1.37499 v 4.80208 h -4.5 v -14.93748 h 6.12499 q 3.15625,0 4.61458,1.19792 1.46875,1.19791 1.46875,3.72916 z m -4.76041,0.15625 q 0,-0.91667 -0.53125,-1.38542 -0.53125,-0.46874 -1.5625,-0.46874 h -0.85416 v 3.68749 h 1.01041 q 1.9375,0 1.9375,-1.83333 z m 16.91664,5.33332 q 0,1.48958 -0.80208,2.59375 -0.79167,1.10416 -2.22917,1.64583 -1.43749,0.54167 -3.45832,0.54167 -2.34375,0 -4.29166,-0.79167 v -4.09374 q 0.9375,0.6875 2.07291,1.11458 1.13541,0.41666 2.11458,0.41666 0.73958,0 1.14583,-0.26041 0.40625,-0.27083 0.40625,-0.78125 0,-0.36458 -0.20833,-0.63542 -0.19792,-0.28125 -0.61458,-0.52083 -0.40625,-0.23958 -1.52084,-0.65625 -3.60416,-1.38541 -3.60416,-4.47916 0,-2.16666 1.64583,-3.45832 1.64584,-1.30209 4.41666,-1.30209 0.78125,0 1.4375,0.0625 0.65625,0.0625 1.1875,0.15625 0.54167,0.0937 1.51041,0.35417 v 3.80208 q -1.88541,-1.03125 -3.70832,-1.03125 -0.75,0 -1.20833,0.28125 -0.45834,0.28125 -0.45834,0.77083 0,0.46875 0.36459,0.78125 0.37499,0.30208 1.55208,0.79166 2.32291,0.9375 3.28124,2.05208 0.96875,1.11459 0.96875,2.64583 z M 301.87021,73.343558 V 50.003737 h 7.03124 v 17.838524 h 8.04036 v 5.501297 z m 40.23433,-11.735015 q 0,3.515622 -1.51367,6.298822 -1.51367,2.766925 -4.23176,4.313147 -2.7181,1.529947 -6.08724,1.529947 -3.28775,0 -5.98957,-1.481119 -2.68555,-1.497394 -4.18294,-4.182938 -1.4974,-2.701821 -1.4974,-6.10351 0,-3.56445 1.51367,-6.412755 1.51367,-2.848304 4.24805,-4.394527 2.73437,-1.562498 6.21744,-1.562498 3.35286,0 5.98958,1.497394 2.65299,1.481119 4.08528,4.248043 1.44856,2.750649 1.44856,6.249994 z m -7.45442,0.195312 q 0,-2.880856 -1.10676,-4.541011 -1.10677,-1.660154 -3.02735,-1.660154 -2.0996,0 -3.27148,1.59505 -1.17187,1.595051 -1.17187,4.508459 0,2.848305 1.1556,4.443355 1.17187,1.595051 3.17382,1.595051 1.2207,0 2.19727,-0.716145 0.97656,-0.716145 1.51367,-2.050779 0.5371,-1.334635 0.5371,-3.173826 z m 22.55858,-6.298822 v 17.838525 h -7.0638 V 55.505033 h -6.52669 v -5.501296 h 20.19855 v 5.501296 z m 39.11129,16.308579 q -1.31836,0.748697 -3.9388,1.35091 -2.62044,0.585937 -4.99674,0.585937 -6.13606,0 -9.47264,-3.059893 -3.33659,-3.076169 -3.33659,-8.610018 0,-3.710934 1.67643,-6.591791 1.69271,-2.880856 4.7526,-4.378251 3.0599,-1.497394 7.21028,-1.497394 3.04362,0 6.49414,0.862629 v 6.136062 q -1.61133,-0.732421 -3.09245,-1.009113 -1.48112,-0.292969 -3.23893,-0.292969 -2.89713,0 -4.62239,1.741535 -1.70898,1.741535 -1.70898,4.785152 0,2.913408 1.43229,4.557287 1.44856,1.643878 4.03645,1.643878 1.20443,0 1.77409,-0.130208 V 64.57078 h -4.47591 v -5.322261 h 11.50715 z M 127.7578,81.343558 V 53.335745 h 8.4375 v 21.40625 h 9.64844 v 6.601563 z m 48.28125,-14.082031 q 0,4.21875 -1.81641,7.558593 -1.8164,3.320313 -5.07812,5.175782 -3.26172,1.835937 -7.30469,1.835937 -3.94531,0 -7.1875,-1.777344 -3.22266,-1.796875 -5.01953,-5.019531 -1.79688,-3.242187 -1.79688,-7.324219 0,-4.277343 1.81641,-7.695312 1.81641,-3.417969 5.09766,-5.273438 3.28125,-1.875 7.46093,-1.875 4.02344,0 7.1875,1.796875 3.1836,1.777344 4.90235,5.097657 1.73828,3.300781 1.73828,7.5 z m -8.94531,0.234375 q 0,-3.457032 -1.32813,-5.449219 -1.32812,-1.992188 -3.63281,-1.992188 -2.51953,0 -3.92578,1.914063 -1.40625,1.914062 -1.40625,5.410156 0,3.417969 1.38672,5.332031 1.40625,1.914063 3.80859,1.914063 1.46484,0 2.63672,-0.859375 1.17187,-0.859375 1.81641,-2.460938 0.64453,-1.601562 0.64453,-3.808593 z m 27.07031,-7.558594 v 21.40625 h -8.47656 v -21.40625 h -7.83203 v -6.601563 h 24.23828 v 6.601563 z m 39.96094,21.40625 -1.23047,-5.15625 h -8.35938 l -1.32812,5.15625 h -9.1211 l 9.64844,-28.007813 h 10.46875 l 9.08203,28.007813 z m -5.3125,-21.914063 h -0.19532 q -0.0391,0.46875 -0.27343,1.542969 -0.23438,1.074219 -2.36328,9.21875 h 5.35156 l -1.95313,-7.617187 q -0.41015,-1.679688 -0.5664,-3.144532 z" /><path
     id="text13-2"
     style="font-weight:bold;font-size:18.6667px;line-height:97.2221px;font-family:'Segoe UI';-inkscape-font-specification:'Segoe UI Bold';letter-spacing:25px;writing-mode:tb-rl;fill:#333333"
     d="m 60.213709,249.95878 h 2.91667 q -0.66536,0.79297 -1.0026,1.72266 -0.32813,0.92968 -0.32813,1.8776 0,0.55599 0.10026,0.96615 0.10026,0.41927 0.27344,0.69271 0.18229,0.28255 0.41927,0.41927 0.2461,0.13672 0.52865,0.13672 0.38281,0 0.6836,-0.21875 0.30078,-0.21875 0.55599,-0.60156 0.2552,-0.3737 0.49218,-0.89323 0.23698,-0.51954 0.48308,-1.1211 0.63802,-1.53125 1.55859,-2.28776 0.92058,-0.7474 2.22397,-0.7474 1.02083,0 1.75,0.41016 0.73828,0.41015 1.21224,1.11198 0.47396,0.71093 0.69271,1.64062 0.22787,0.92969 0.22787,1.96876 0,1.02083 -0.12761,1.80469 -0.11849,0.79297 -0.3737,1.45833 h -2.72526 q 0.22786,-0.32812 0.40104,-0.72005 0.17318,-0.38281 0.28255,-0.79297 0.11849,-0.41016 0.17318,-0.82031 0.0547,-0.40105 0.0547,-0.76563 0,-0.5013 -0.10026,-0.91146 -0.0911,-0.41016 -0.26433,-0.69271 -0.17317,-0.28255 -0.41927,-0.4375 -0.23698,-0.15495 -0.53776,-0.15495 -0.32812,0 -0.59245,0.17318 -0.25521,0.17318 -0.49219,0.49219 -0.22786,0.31901 -0.45573,0.77474 -0.21875,0.45573 -0.45573,1.02995 -0.32812,0.78385 -0.70182,1.40365 -0.36458,0.6289 -0.82943,1.07552 -0.46484,0.44662 -1.06641,0.68359 -0.59245,0.23698 -1.38542,0.23698 -1.09375,0 -1.84115,-0.41927 -0.73828,-0.41015 -1.20312,-1.12109 -0.45573,-0.71094 -0.65625,-1.65886 -0.20053,-0.9388 -0.20053,-1.98698 0,-1.07553 0.1823,-2.05079 0.18229,-0.96615 0.54687,-1.67708 z m 10.1719,45.24352 v -3.72787 h -10.6732 v -2.95313 h 10.6732 v -3.70964 h 2.39714 v 10.39064 z m -10.6732,36.94924 v -3.20834 l 2.90756,-0.92968 v -4.64845 l -2.90756,-0.92057 v -3.19011 l 13.07034,4.75782 v 3.49089 z m 5.16798,-4.8125 4.39324,-1.40365 q 0.49218,-0.15495 1.17578,-0.21875 v -0.0729 q -0.57422,-0.0456 -1.13933,-0.22787 l -4.42969,-1.42187 z m 5.50522,39.31903 v -3.72787 h -10.6732 v -2.95313 h 10.6732 v -3.70965 h 2.39714 v 10.39065 z m -10.6732,34.59767 v -7.83856 h 13.07034 v 7.53778 h -2.39714 v -4.59376 h -2.90756 v 4.27474 h -2.38803 v -4.27474 h -2.98958 v 4.89454 z m 0.46484,66.61592 q -0.69271,-1.43099 -0.69271,-3.73699 0,-3.00781 1.76824,-4.73047 1.76823,-1.72266 4.71225,-1.72266 3.13542,0 5.08594,1.93229 1.95053,1.94141 1.95053,5.03126 0,1.91407 -0.48308,3.22657 h -2.83464 q 0.78386,-1.3125 0.78386,-2.98959 0,-1.84115 -1.15756,-2.97136 -1.15755,-1.13021 -3.13542,-1.13021 -1.89584,0 -3.02605,1.06641 -1.12109,1.06641 -1.12109,2.8711 0,1.72266 0.83854,3.15365 z m -0.69271,32.57423 q 0,-2.80729 1.82292,-4.57553 1.83204,-1.76823 4.76694,-1.76823 3.09896,0 5.01303,1.79558 1.91407,1.79557 1.91407,4.75782 0,2.79818 -1.83204,4.52084 -1.83203,1.73177 -4.83074,1.73177 -3.08073,0 -4.96745,-1.79557 -1.88673,-1.78646 -1.88673,-4.66668 z m 10.9831,0.12761 q 0,-1.54948 -1.16667,-2.46094 -1.15756,-0.91146 -3.07162,-0.91146 -1.94141,0 -3.07162,0.91146 -1.13021,0.91146 -1.13021,2.38802 0,1.52214 1.09375,2.41537 1.10287,0.89323 3.05339,0.89323 2.03256,0 3.16277,-0.86589 1.13021,-0.86588 1.13021,-2.36979 z m -10.75523,41.2878 v -7.78387 h 13.07034 v 2.94401 h -10.68231 v 4.83986 z m 0,34.54297 v -7.78387 h 13.07034 v 2.94401 h -10.68231 v 4.83986 z m 0,34.59768 v -7.83855 h 13.07034 v 7.53777 h -2.39714 v -4.59376 h -2.90756 v 4.27475 h -2.38803 v -4.27475 h -2.98958 v 4.89454 z m 0.875,37.82424 q -1.10287,-1.91407 -1.10287,-4.75782 0,-3.15366 1.74089,-4.97658 1.75001,-1.8138 4.81251,-1.8138 3.08074,0 5.02215,1.98698 1.94141,1.98698 1.94141,5.28647 0,2.07813 -0.57422,3.66407 h -2.76173 q 0.875,-1.51302 0.875,-3.70053 0,-1.83203 -1.19401,-2.98959 -1.1849,-1.14844 -3.17188,-1.14844 -2.01433,0 -3.11719,1.02995 -1.10287,1.03907 -1.10287,2.79818 0,1.0573 0.30078,1.67709 h 2.55209 v -2.61589 h 2.35157 v 5.55991 z m -0.875,35.38151 v -7.83855 h 13.07034 v 7.53777 h -2.39714 v -4.59376 h -2.90756 v 4.27475 h -2.38803 v -4.27475 h -2.98958 v 4.89454 z m 0,57.24613 h 13.07034 v 4.75782 q 0,2.18751 -0.80209,3.36329 -0.80208,1.17578 -2.26042,1.17578 -1.05729,0 -1.85026,-0.72005 -0.79297,-0.71094 -1.10287,-1.82292 h -0.0365 q -0.17318,1.39454 -1.02995,2.22396 -0.85677,0.83855 -2.08724,0.83855 -1.79558,0 -2.85287,-1.28516 -1.04818,-1.28516 -1.04818,-3.50912 z m 10.90106,2.94402 h -3.09896 v 1.29427 q 0,0.91146 0.4375,1.43099 0.44661,0.52865 1.22135,0.52865 1.44011,0 1.44011,-2.15104 z m -5.28647,0 h -3.44532 v 1.59505 q 0,1.02084 0.47396,1.59506 0.47396,0.58333 1.29428,0.58333 0.78385,0 1.23047,-0.57422 0.44661,-0.5651 0.44661,-1.58594 z m -5.61459,41.80732 v -7.78387 h 13.07034 v 2.94402 h -10.68231 v 4.83985 z m 13.07034,36.57553 -13.07034,-4.50262 v -3.33594 l 13.07034,-4.44792 v 3.17188 l -9.09637,2.72526 q -0.73829,0.21875 -1.30339,0.26432 v 0.0547 q 0.61068,0.0638 1.33984,0.28255 l 9.05992,2.70704 z m -13.07034,26.56773 h 13.07034 v 4.63021 q 0,6.96356 -6.37111,6.96356 -3.05339,0 -4.87631,-1.90496 -1.82292,-1.89583 -1.82292,-5.0586 z m 10.6732,2.94401 h -8.28517 v 1.45834 q 0,1.91406 1.14843,2.9987 1.14844,1.09375 3.12631,1.09375 1.8685,0 2.9349,-1.08464 1.07553,-1.07552 1.07553,-3.02604 z M 831.80325,502.59551 q -1.24219,0 -2.32031,-0.43359 -1.07813,-0.43359 -1.875,-1.20703 -0.78516,-0.77344 -1.24219,-1.83985 -0.44531,-1.0664 -0.44531,-2.33203 0,-1.41797 0.52734,-2.54297 0.52735,-1.11328 1.52344,-1.88671 1.00781,-0.77344 2.46094,-1.1836 1.45312,-0.41015 3.29297,-0.41015 2.16797,0 3.92578,0.52734 1.76953,0.53906 3.02344,1.52344 1.2539,0.99609 1.93359,2.40234 0.69141,1.40625 0.69141,3.16406 0,1.94532 -0.45704,3.02344 h -3.09375 q 0.72657,-1.27734 0.72657,-2.78906 0,-0.9375 -0.36328,-1.69922 -0.36329,-0.76172 -1.03125,-1.3125 -0.66797,-0.53906 -1.61719,-0.85547 -0.9375,-0.30469 -2.09766,-0.32812 v 0.0703 q 1.65235,1.19531 1.65235,3.52734 0,1.04297 -0.375,1.88672 -0.375,0.84375 -1.06641,1.44141 -0.67969,0.59765 -1.64063,0.92578 -0.96093,0.32812 -2.13281,0.32812 z m -0.23437,-3.62109 q 2.70703,0 2.70703,-2.21484 0,-0.50391 -0.1875,-0.91407 -0.1875,-0.41015 -0.52735,-0.70312 -0.33984,-0.29297 -0.80859,-0.45703 -0.45703,-0.15235 -1.01953,-0.15235 -0.62109,0 -1.16016,0.16407 -0.53906,0.16406 -0.94922,0.45703 -0.39843,0.30468 -0.63281,0.71484 -0.23437,0.41016 -0.23437,0.91406 0,0.50391 0.19922,0.90235 0.21093,0.41015 0.57421,0.6914 0.375,0.29297 0.89063,0.44532 0.52734,0.15234 1.14844,0.15234 z m 9.3164,42.23828 q -2.02734,-1.125 -3.80859,-2.01562 -1.76953,-0.89063 -3.50391,-1.57032 -1.72265,-0.67968 -3.51562,-1.16015 -1.78125,-0.48047 -3.84375,-0.78516 v -3.86719 q 1.95703,0.32813 3.77344,0.86719 1.8164,0.53906 3.51562,1.24219 1.71094,0.71484 3.32813,1.57031 1.61718,0.86719 3.16406,1.82813 v -7.80469 h 3.02344 v 11.69531 z m -0.94922,69.24219 v -5.92969 h -4.125 v 5.44922 h -3.07031 v -5.44922 h -6.52734 v -3.78516 h 16.80469 v 9.71485 z m -13.72265,41.86328 v -4.34766 l 4.32422,-2.61328 q 0.49218,-0.29297 0.8789,-0.5625 0.38672,-0.26953 0.65625,-0.55078 0.28125,-0.26953 0.42188,-0.57422 0.15234,-0.29297 0.15234,-0.64453 v -1.01953 h -6.43359 v -3.78516 h 16.80469 v 6 q 0,6.11719 -4.57032,6.11719 -0.8789,0 -1.6289,-0.26953 -0.73828,-0.26953 -1.33594,-0.76172 -0.59766,-0.49219 -1.03125,-1.19531 -0.43359,-0.69141 -0.67969,-1.54688 h -0.0469 q -0.11719,0.375 -0.38672,0.72657 -0.25781,0.35156 -0.60938,0.67968 -0.35156,0.32813 -0.76172,0.6211 -0.39843,0.30468 -0.78515,0.55078 z m 13.96875,-10.3125 h -4.67578 v 1.64062 q 0,1.21875 0.70312,1.95704 0.71485,0.75 1.76953,0.75 2.20313,0 2.20313,-2.63672 z m -13.96875,46.96094 v -10.07813 h 16.80469 v 9.69141 h -3.08204 v -5.90625 h -3.73828 v 5.49609 h -3.07031 v -5.49609 h -3.84375 v 6.29297 z m 0,37.77343 v -10.07812 h 16.80469 v 9.69141 h -3.08204 v -5.90625 h -3.73828 v 5.49609 h -3.07031 v -5.49609 h -3.84375 v 6.29296 z m 16.80469,50.16016 -16.80469,-4.44141 v -4.19531 l 10.78125,-2.78906 q 0.84375,-0.22266 1.88672,-0.26953 v -0.0469 q -1.14844,-0.10547 -1.88672,-0.30468 l -10.78125,-2.85938 v -4.37109 l 16.80469,-4.41797 v 4.13672 l -11.19141,2.36718 q -0.71484,0.15235 -1.92188,0.22266 v 0.0703 q 0.90235,0.0469 1.96875,0.33985 l 11.14454,3.04687 v 4.05469 l -11.28516,2.75391 q -0.62109,0.15234 -1.80469,0.26953 v 0.0469 q 0.92578,0.0469 1.875,0.2461 l 11.21485,2.32031 z m -16.80469,41.06641 v -4.125 l 3.73828,-1.19532 v -5.97656 l -3.73828,-1.18359 v -4.10156 l 16.80469,6.11718 v 4.48828 z m 6.64453,-6.1875 5.64844,-1.80469 q 0.63281,-0.19922 1.51172,-0.28125 v -0.0937 q -0.73829,-0.0586 -1.46485,-0.29297 l -5.69531,-1.82812 z m 10.16016,44.14843 -10.82813,-5.47265 h -5.97656 v -3.78516 h 5.90625 l 10.89844,-5.33203 v 4.32422 l -6.26954,2.70703 q -0.17578,0.0703 -1.37109,0.38672 v 0.0469 q 0.84375,0.15235 1.32422,0.36329 l 6.31641,2.7539 z M 225.86013,10.2799 l -4.25652,8.42189 v 4.648446 H 218.6596 V 18.756477 L 214.51245,10.2799 h 3.36329 l 2.10547,4.87631 q 0.0547,0.136719 0.30079,1.066409 h 0.0365 q 0.11849,-0.656252 0.28256,-1.02995 l 2.14193,-4.912769 z m 26.53517,13.298201 q -2.8073,0 -4.57553,-1.82292 -1.76823,-1.832035 -1.76823,-4.766936 0,-3.098964 1.79557,-5.01303 1.79558,-1.914066 4.75782,-1.914066 2.79819,0 4.52085,1.832035 1.73177,1.832034 1.73177,4.830738 0,3.080734 -1.79558,4.967456 -1.78646,1.886723 -4.66667,1.886723 z m 0.1276,-10.983093 q -1.54948,0 -2.46094,1.166669 -0.91146,1.157554 -0.91146,3.07162 0,1.94141 0.91146,3.07162 0.91146,1.13021 2.38803,1.13021 1.52213,0 2.41536,-1.093752 0.89324,-1.102866 0.89324,-3.053391 0,-2.032555 -0.86589,-3.162766 -0.86589,-1.13021 -2.3698,-1.13021 z m 39.46879,10.755228 h -3.38152 l -2.03255,-3.363288 q -0.22787,-0.382813 -0.4375,-0.683595 -0.20964,-0.300781 -0.42839,-0.510417 -0.20964,-0.218751 -0.44662,-0.328126 -0.22786,-0.11849 -0.5013,-0.11849 h -0.79297 v 5.003916 h -2.94402 V 10.2799 h 4.66668 q 4.75782,0 4.75782,3.554693 0,0.683595 -0.20963,1.26693 -0.20964,0.57422 -0.59245,1.039064 -0.38282,0.464845 -0.92969,0.802085 -0.53776,0.33724 -1.20313,0.528647 v 0.03646 q 0.29167,0.09115 0.56511,0.300782 0.27343,0.200521 0.52864,0.473959 0.25521,0.273438 0.48308,0.592449 0.23698,0.309897 0.42838,0.610678 z m -8.02085,-10.864603 v 3.636725 h 1.27604 q 0.94792,0 1.52214,-0.546876 0.58334,-0.555991 0.58334,-1.376305 0,-1.713544 -2.05079,-1.713544 z m 29.2422,10.864603 V 10.2799 h 4.75782 q 2.18751,0 3.36329,0.802084 1.17578,0.802085 1.17578,2.260421 0,1.057294 -0.72005,1.850264 -0.71094,0.79297 -1.82292,1.102866 v 0.03646 q 1.39454,0.173177 2.22396,1.02995 0.83855,0.856772 0.83855,2.087243 0,1.795576 -1.28516,2.85287 -1.28516,1.048179 -3.50912,1.048179 z m 2.94402,-10.901062 v 3.098964 h 1.29427 q 0.91146,0 1.43099,-0.437501 0.52865,-0.446615 0.52865,-1.221356 0,-1.440107 -2.15104,-1.440107 z m 0,5.286468 v 3.445319 h 1.59505 q 1.02084,0 1.59506,-0.473959 0.58333,-0.473959 0.58333,-1.294273 0,-0.783856 -0.57422,-1.230471 -0.5651,-0.446616 -1.58594,-0.446616 z m 40.51696,5.614594 h -3.20834 l -0.92969,-2.907558 h -4.64844 l -0.92058,2.907558 h -3.19011 L 348.53468,10.2799 h 3.4909 z m -4.81251,-5.167978 -1.40365,-4.393238 q -0.15494,-0.492188 -0.21875,-1.175783 h -0.0729 q -0.0456,0.57422 -0.22787,1.139325 l -1.42188,4.429696 z m 59.37765,5.167978 h -7.78387 V 10.2799 h 2.94402 v 10.68231 h 4.83985 z m 24.70313,0 h -2.94401 V 10.2799 h 2.94401 z m 34.72919,0 h -2.97136 l -5.38672,-8.212255 q -0.47396,-0.720053 -0.65625,-1.084637 h -0.0365 q 0.0729,0.692709 0.0729,2.114587 v 7.182305 H 458.9136 V 10.2799 h 3.17188 l 5.18621,7.957045 q 0.35547,0.537762 0.65625,1.066408 h 0.0365 q -0.0729,-0.45573 -0.0729,-1.795576 V 10.2799 h 2.77995 z m 22.98958,0 V 10.2799 h 4.63021 q 6.96356,0 6.96356,6.371105 0,3.053391 -1.90495,4.876311 -1.89584,1.82292 -5.05861,1.82292 z m 2.94401,-10.673197 v 8.285171 h 1.45834 q 1.91406,0 2.9987,-1.148439 1.09375,-1.14844 1.09375,-3.126308 0,-1.868493 -1.08463,-2.934901 -1.07553,-1.075523 -3.02605,-1.075523 z m 42.03,10.673197 h -3.20834 l -0.92969,-2.907558 h -4.64845 l -0.92057,2.907558 h -3.19011 L 530.49573,10.2799 h 3.49089 z m -4.81251,-5.167978 -1.40365,-4.393238 q -0.15495,-0.492188 -0.21875,-1.175783 h -0.0729 q -0.0456,0.57422 -0.22786,1.139325 l -1.42188,4.429696 z m 51.59378,5.167978 V 10.2799 h 4.75782 q 2.1875,0 3.36328,0.802084 1.17579,0.802085 1.17579,2.260421 0,1.057294 -0.72006,1.850264 -0.71093,0.79297 -1.82292,1.102866 v 0.03646 q 1.39454,0.173177 2.22397,1.02995 0.83854,0.856772 0.83854,2.087243 0,1.795576 -1.28516,2.85287 -1.28516,1.048179 -3.50912,1.048179 z m 2.94401,-10.901062 v 3.098964 h 1.29427 q 0.91146,0 1.431,-0.437501 0.52864,-0.446615 0.52864,-1.221356 0,-1.440107 -2.15104,-1.440107 z m 0,5.286468 v 3.445319 h 1.59506 q 1.02083,0 1.59505,-0.473959 0.58334,-0.473959 0.58334,-1.294273 0,-0.783856 -0.57422,-1.230471 -0.56511,-0.446616 -1.58594,-0.446616 z m 36.80732,5.614594 H 617.3838 V 10.2799 h 2.94402 v 10.68231 h 4.83985 z M 656.74323,10.2799 652.24062,23.350236 h -3.33595 L 644.45675,10.2799 h 3.17188 l 2.72526,9.09637 q 0.21876,0.738283 0.26433,1.303388 h 0.0547 q 0.0638,-0.610678 0.28255,-1.339846 L 653.6625,10.2799 Z m 21.5677,13.070336 V 10.2799 h 4.63022 q 6.96355,0 6.96355,6.371105 0,3.053391 -1.90495,4.876311 -1.89584,1.82292 -5.0586,1.82292 z m 2.94401,-10.673197 v 8.285171 h 1.45834 q 1.91407,0 2.9987,-1.148439 1.09376,-1.14844 1.09376,-3.126308 0,-1.868493 -1.08464,-2.934901 -1.07552,-1.075523 -3.02605,-1.075523 z M 295.00538,1090.3215 h -2.97136 l -5.38673,-8.2122 q -0.47396,-0.7201 -0.65625,-1.0847 h -0.0365 q 0.0729,0.6927 0.0729,2.1146 v 7.1823 h -2.77996 v -13.0703 h 3.17188 l 5.18621,7.957 q 0.35547,0.5378 0.65625,1.0664 h 0.0365 q -0.0729,-0.4557 -0.0729,-1.7956 v -7.2278 h 2.77996 z m 33.64455,-5.6602 q 0,5.8881 -5.48699,5.8881 -5.32292,0 -5.32292,-5.7513 v -7.5469 h 2.95313 v 7.5833 q 0,3.1719 2.47917,3.1719 2.4336,0 2.4336,-3.0625 v -7.6927 h 2.94401 z m 32.02216,-5.013 h -3.72787 v 10.6732 h -2.95313 v -10.6732 h -3.70964 v -2.3971 h 10.39064 z m 39.23181,-2.3971 -3.45444,13.0703 h -3.26302 l -2.16928,-8.3854 q -0.17317,-0.6563 -0.20963,-1.4675 h -0.0365 q -0.082,0.8933 -0.23698,1.4675 l -2.22396,8.3854 h -3.39975 l -3.4362,-13.0703 h 3.21745 l 1.84115,8.7044 q 0.11849,0.556 0.17318,1.4948 h 0.0547 q 0.0365,-0.7018 0.26432,-1.5312 l 2.36979,-8.668 h 3.15366 l 2.14193,8.7773 q 0.11849,0.4831 0.20963,1.4037 h 0.0365 q 0.0365,-0.7201 0.19141,-1.4584 l 1.80469,-8.7226 z m 27.18231,13.2982 q -2.8073,0 -4.57553,-1.8229 -1.76823,-1.8321 -1.76823,-4.767 0,-3.0989 1.79557,-5.013 1.79558,-1.9141 4.75782,-1.9141 2.79818,0 4.52084,1.8321 1.73178,1.832 1.73178,4.8307 0,3.0807 -1.79558,4.9674 -1.78646,1.8868 -4.66667,1.8868 z m 0.1276,-10.9831 q -1.54948,0 -2.46094,1.1666 -0.91146,1.1576 -0.91146,3.0717 0,1.9414 0.91146,3.0716 0.91146,1.1302 2.38802,1.1302 1.52214,0 2.41537,-1.0938 0.89323,-1.1028 0.89323,-3.0533 0,-2.0326 -0.86588,-3.1628 -0.86589,-1.1302 -2.3698,-1.1302 z m 34.02737,10.9831 q -2.8073,0 -4.57553,-1.8229 -1.76824,-1.8321 -1.76824,-4.767 0,-3.0989 1.79558,-5.013 1.79558,-1.9141 4.75782,-1.9141 2.79818,0 4.52084,1.8321 1.73178,1.832 1.73178,4.8307 0,3.0807 -1.79558,4.9674 -1.78646,1.8868 -4.66667,1.8868 z m 0.1276,-10.9831 q -1.54948,0 -2.46094,1.1666 -0.91146,1.1576 -0.91146,3.0717 0,1.9414 0.91146,3.0716 0.91146,1.1302 2.38802,1.1302 1.52214,0 2.41537,-1.0938 0.89323,-1.1028 0.89323,-3.0533 0,-2.0326 -0.86588,-3.1628 -0.86589,-1.1302 -2.3698,-1.1302 z m 28.50392,10.7552 v -13.0703 h 4.63021 q 6.96356,0 6.96356,6.3711 0,3.0534 -1.90495,4.8763 -1.89584,1.8229 -5.05861,1.8229 z m 2.94401,-10.6732 v 8.2852 h 1.45834 q 1.91406,0 2.9987,-1.1485 1.09375,-1.1484 1.09375,-3.1263 0,-1.8685 -1.08463,-2.9349 -1.07553,-1.0755 -3.02605,-1.0755 z m 67.46231,10.6732 h -3.20834 l -0.92969,-2.9076 h -4.64845 l -0.92057,2.9076 h -3.19011 l 4.75782,-13.0703 h 3.49089 z m -4.81251,-5.168 -1.40365,-4.3932 q -0.15495,-0.4922 -0.21875,-1.1758 h -0.0729 q -0.0456,0.5742 -0.22786,1.1393 l -1.42188,4.4297 z m 36.29689,-7.9023 -4.50261,13.0703 h -3.33594 l -4.44793,-13.0703 h 3.17188 l 2.72527,9.0963 q 0.21875,0.7383 0.26432,1.3034 h 0.0547 q 0.0638,-0.6107 0.28255,-1.3398 l 2.70704,-9.0599 z m 29.40626,13.0703 h -7.83856 v -13.0703 h 7.53777 v 2.3971 h -4.59375 v 2.9076 h 4.27474 v 2.388 h -4.27474 v 2.9896 h 4.89454 z M 144.00742,488.88653 q -2.08594,0.75 -4.81641,0.75 -2.68359,0 -4.6289,-1.01953 -1.94532,-1.03125 -2.97657,-2.91797 -1.01953,-1.89844 -1.01953,-4.3711 0,-2.66015 1.14844,-4.73437 1.14844,-2.07422 3.24609,-3.19922 2.09766,-1.13672 4.82813,-1.13672 2.17969,0 4.21875,0.52735 v 4.67578 q -0.70313,-0.42188 -1.67578,-0.65625 -0.97266,-0.23438 -1.96875,-0.23438 -2.0625,0 -3.25782,1.1836 -1.18359,1.18359 -1.18359,3.21093 0,2.01563 1.18359,3.1875 1.19532,1.16016 3.1875,1.16016 1.83985,0 3.71485,-0.9375 z m 11.20312,-5.37891 v 5.83594 h -5.0625 v -5.76563 l -5.17968,-11.03906 h 5.8125 l 1.8164,5.28516 q 0.1875,0.53906 0.25781,0.9375 0.082,0.39844 0.17579,0.80859 h 0.0469 q 0.15234,-1.0664 0.33984,-1.65234 l 1.79297,-5.37891 h 5.35547 z m 446.60938,197.83594 v -16.80469 h 10.46484 v 3.96094 h -5.40234 v 2.44922 h 5.07422 v 3.96094 h -5.07422 v 2.47265 h 5.78906 v 3.96094 z m 25.74609,-0.45703 q -2.08594,0.75 -4.8164,0.75 -2.6836,0 -4.62891,-1.01953 -1.94531,-1.03125 -2.97656,-2.91797 -1.01953,-1.89844 -1.01953,-4.3711 0,-2.66015 1.14843,-4.73437 1.14844,-2.07422 3.2461,-3.19922 2.09765,-1.13672 4.82812,-1.13672 2.17969,0 4.21875,0.52735 v 4.67578 q -0.70312,-0.42188 -1.67578,-0.65625 -0.97266,-0.23438 -1.96875,-0.23438 -2.0625,0 -3.25781,1.1836 -1.1836,1.18359 -1.1836,3.21093 0,2.01563 1.1836,3.1875 1.19531,1.16016 3.1875,1.16016 1.83984,0 3.71484,-0.9375 z m 14.28516,-4.62891 q 0,1.67578 -0.90235,2.91797 -0.89062,1.24219 -2.50781,1.85156 -1.61719,0.60938 -3.89062,0.60938 -2.63672,0 -4.82813,-0.89063 v -4.60547 q 1.05469,0.77344 2.33203,1.25391 1.27735,0.46875 2.37891,0.46875 0.83203,0 1.28906,-0.29297 0.45703,-0.30469 0.45703,-0.8789 0,-0.41016 -0.23437,-0.71485 -0.22266,-0.3164 -0.69141,-0.58594 -0.45703,-0.26953 -1.71094,-0.73828 -4.05468,-1.55859 -4.05468,-5.03906 0,-2.4375 1.85156,-3.89062 1.85156,-1.46485 4.96875,-1.46485 0.87891,0 1.61719,0.0703 0.73828,0.0703 1.33593,0.17579 0.60938,0.10546 1.69922,0.39843 v 4.27735 q -2.12109,-1.16016 -4.17187,-1.16016 -0.84375,0 -1.35938,0.31641 -0.51562,0.3164 -0.51562,0.86718 0,0.52735 0.41015,0.87891 0.42188,0.33984 1.7461,0.89063 2.61328,1.05468 3.6914,2.30859 1.08985,1.25391 1.08985,2.97656 z" /></svg>
